<svg xmlns="http://www.w3.org/2000/svg" xmlns:xlink="http://www.w3.org/1999/xlink" width="183.394" height="40.953" viewBox="0 0 183.394 40.953">
  <defs>
    <linearGradient id="linear-gradient" x1="0.5" y1="1.122" x2="0.5" y2="0.118" gradientUnits="objectBoundingBox">
      <stop offset="0" stop-color="#f40201"/>
      <stop offset="0.5" stop-color="#f7941d"/>
      <stop offset="1" stop-color="#fd0"/>
    </linearGradient>
    <linearGradient id="linear-gradient-2" x1="0.5" y1="1.032" x2="0.5" y2="0.137" xlink:href="#linear-gradient"/>
    <linearGradient id="linear-gradient-3" x1="0.5" y1="0.95" x2="0.5" y2="0.189" xlink:href="#linear-gradient"/>
    <linearGradient id="linear-gradient-4" x1="0.5" y1="1.007" x2="0.5" y2="0.194" xlink:href="#linear-gradient"/>
    <linearGradient id="linear-gradient-7" x1="0.5" y1="0.856" x2="0.5" y2="0.135" xlink:href="#linear-gradient"/>
  </defs>
  <g id="berserk" transform="translate(0.16 0.352)">
    <g id="Group_24800" data-name="Group 24800" transform="translate(-1103.468 -1292)" style="mix-blend-mode: normal;isolation: isolate">
      <g id="Group_24799" data-name="Group 24799" transform="translate(1103.468 1292)">
        <path id="Path_48054" data-name="Path 48054" d="M79.968,65.15q.756-.347,2.047-.8t2.866-.945q1.575-.488,3.307-.945t3.386-.85q1.654-.394,3.1-.63t2.457-.3a.469.469,0,0,0,.362.315,1.205,1.205,0,0,0,.5-.048,1.427,1.427,0,0,0,.488-.252,1.287,1.287,0,0,0,.315-.33,11.964,11.964,0,0,1,1.386-.126q.787-.031,1.591.015t1.528.158a8.557,8.557,0,0,1,1.228.268,6.134,6.134,0,0,1,.236.992,7.729,7.729,0,0,1,.079,1.543,12.58,12.58,0,0,1-.252,2,12.055,12.055,0,0,1-.725,2.3,7.939,7.939,0,0,1-1.354,2.063,19.067,19.067,0,0,1-1.8,1.78,23.341,23.341,0,0,1-2.236,1.732q1.386-1.323,2.425-2.425.441-.472.835-.929a9.515,9.515,0,0,0,.662-.85,3.574,3.574,0,0,0,.378-.677q.11-.284-.047-.378-.158-.126-.535.488a11.889,11.889,0,0,1-1.26,1.591,16.643,16.643,0,0,1-2.41,2.11,16.889,16.889,0,0,1-3.984,2.079l-1.449.567a4.474,4.474,0,0,1,1.528.551,4.975,4.975,0,0,1,1.433,1.338.525.525,0,0,0-.11.378.83.83,0,0,0,.142.409.948.948,0,0,0,.315.3.68.68,0,0,0,.441.079,3.584,3.584,0,0,1,.252,1.2,3.107,3.107,0,0,1-.283,1.386A5.351,5.351,0,0,1,94.9,82.472a18.863,18.863,0,0,1-3.48,1.922,34.055,34.055,0,0,1-4.488,1.559,47.374,47.374,0,0,1-4.976,1.086q.094-.315-.8-.221T78.8,87.15q-1.449.236-3.26.457A20.193,20.193,0,0,1,72,87.732q.095-.032.787-.158t1.78-.346q1.086-.221,2.472-.536t2.913-.677q1.527-.362,3.071-.772t2.929-.882a2.066,2.066,0,0,0,.96-.047,8.708,8.708,0,0,0,1.26-.378,3.866,3.866,0,0,0,.96-.5q.346-.268.032-.394a5.092,5.092,0,0,0,1.087-.835,1.792,1.792,0,0,0,.456-.9,1.87,1.87,0,0,0-.378-1.622A5.308,5.308,0,0,0,88.9,78.457a9.983,9.983,0,0,0-1.8-.85q-.93-.33-1.465-.488a.482.482,0,0,0-.189.063l-5.606,8.347a4.805,4.805,0,0,0-.913-1.008,2.907,2.907,0,0,0-.961-.5,1.382,1.382,0,0,0-1.118.189,5.144,5.144,0,0,0-.693.535q-.346.315-.63.63t-.488.567c-.136.167-.225.283-.268.346q.063-.126.441-.787t.961-1.7q.583-1.039,1.291-2.315T78.9,78.866q.724-1.338,1.386-2.614t1.166-2.3q.5-1.023.772-1.685t.173-.756q-.158-.157-.551.331a12.964,12.964,0,0,0-.866,1.244q-.472.756-.96,1.637t-.8,1.481l5.7-11.307a10.945,10.945,0,0,0-2.11-.126A16.028,16.028,0,0,0,79.968,65.15Zm-5.2,21.134a.092.092,0,0,1-.031.063ZM87.087,74.724q.881-.251,2.063-.6t2.425-.819q1.244-.473,2.441-1.024A13.352,13.352,0,0,0,96.11,71.1,5.763,5.763,0,0,0,97.5,69.8a1.609,1.609,0,0,0,.3-1.4,1.254,1.254,0,0,0,.457-.646.878.878,0,0,0-.016-.551.523.523,0,0,0-.315-.3.41.41,0,0,0-.441.142q-.914.064-1.732.158a11.812,11.812,0,0,0-1.654.315,12.024,12.024,0,0,0-1.764.63,19.873,19.873,0,0,0-2.095,1.1q-.6.756-1.212,1.559t-1.118,1.465q-.5.661-.787,1.118t-.22.488q.094.126.456-.189a7.267,7.267,0,0,0,.74-.756q.44-.5.976-1.165Z" transform="translate(-72 -56.614)" stroke="rgba(0,0,0,0)" stroke-width="1" fill="url(#linear-gradient)"/>
        <path id="Path_48055" data-name="Path 48055" d="M156.32,74.186a4.687,4.687,0,0,1,.567-.031h.614q.361,0,.8-.031a4.29,4.29,0,0,0,.646-.819q.393-.6,1.149-2.015.787-1.543,1.512-2.835-1.008.252-1.811.409t-1.276.22a.773.773,0,0,0,.22-.645.783.783,0,0,0-.331-.488,1.94,1.94,0,0,0-.724-.283,2.633,2.633,0,0,0-.992,0q.913-.472,1.638-.913a7.3,7.3,0,0,0,1.165-.85,1.808,1.808,0,0,0,.536-.724q.094-.314-.284-.5.409-.22-.063-.441a5.713,5.713,0,0,0-1.323-.378,15.59,15.59,0,0,0-1.827-.221,7.771,7.771,0,0,0-1.606.031,11.8,11.8,0,0,0,2.047-.677,4.433,4.433,0,0,0,.977-.583.742.742,0,0,0,.315-.6,19.741,19.741,0,0,0,2.268-.22,5.04,5.04,0,0,0,.756-.173,2.321,2.321,0,0,0,.583-.268.617.617,0,0,0,.283-.347.537.537,0,0,0-.142-.441q1.291-.22,2.882-.472t3.338-.52q1.748-.267,3.575-.535t3.528-.52q-.095.409.378.551a.9.9,0,0,0,.882-.2,1.236,1.236,0,0,0,.5.032,2.443,2.443,0,0,0,.614-.142,1.879,1.879,0,0,0,.535-.3,1.072,1.072,0,0,0,.331-.409q1.26-.157,2.3-.3t1.827-.236q.881-.126,1.638-.22L178.43,70.469l.126-.5a5.932,5.932,0,0,0,.142-.866,4.949,4.949,0,0,0-.016-1.039,2.572,2.572,0,0,0-.315-.992,1.839,1.839,0,0,0-.756-.709,2.694,2.694,0,0,0-1.354-.236,25.637,25.637,0,0,0-2.787.283q-1.4.221-2.661.488l-2.3.488q-1.039.221-1.7.315.692-.252,1.842-.551t2.22-.567q1.071-.267,1.827-.5t.661-.331q-.064-.063-.74.079t-1.764.394q-1.086.252-2.457.6t-2.787.693a6.5,6.5,0,0,0,.158.882,2.344,2.344,0,0,0,.472.961,2.135,2.135,0,0,0,.945.646,2.56,2.56,0,0,0,1.575-.063q-.63.693-1.386,1.654T165.8,73.682l.819-.095a3.17,3.17,0,0,0,1.008-.236q.252-.141.252-.3c0-.1-.084-.22-.252-.346l5.8-1.166a1.471,1.471,0,0,0-.315.284.7.7,0,0,0-.126.3.486.486,0,0,0,.094.362.686.686,0,0,0,.41.268,2.973,2.973,0,0,0,.677.095q.393.016.929.031t1.2.079a3.016,3.016,0,0,0-.914.362,2.873,2.873,0,0,0-.661.567,5.374,5.374,0,0,0-.536.756q-.252.425-.567.9-.977-.031-2.157.016T169,75.729q-1.275.126-2.583.3t-2.535.362l-1.8,2.6q-.882,1.275-1.638,2.409,1.921-.536,2.851-.85t1.26-.473q.331-.157.268-.2a.193.193,0,0,0-.094-.047q.094-.032.913-.22t2.063-.52q1.244-.33,2.74-.756t2.976-.9q0,.378.472.473a3.38,3.38,0,0,0,1.039.031,12.492,12.492,0,0,0,1.512-.252L176.7,78a2,2,0,0,0,.22.3c.084.094.158.184.221.268a4.165,4.165,0,0,0-1.654.661,4.656,4.656,0,0,0-1.181,1.118,3.029,3.029,0,0,0-.551,1.213.824.824,0,0,0,.268.882,2.619,2.619,0,0,0-.976.252,1.311,1.311,0,0,0-.5.441,1.656,1.656,0,0,0-.252.6,9.241,9.241,0,0,1-.976.252q-1.039.22-3.37.693a1.78,1.78,0,0,0,.346-.378q.094-.158-.094-.22a2.1,2.1,0,0,0-.725-.016q-.536.048-1.575.236-.409.063-1.2.221t-1.716.331q-.929.173-1.906.378t-1.779.394q-.8.189-1.307.315t-.5.189q0,.063.661-.032t1.685-.268q1.023-.174,2.22-.346t2.236-.3q-1.89.409-3.89.882t-3.7.913q-1.953.5-3.874,1.008a3.424,3.424,0,0,0,.11-1.166,5.936,5.936,0,0,0-.173-1.039,4.71,4.71,0,0,0-.378-1.04l4.378-7.716q-.725-.157-1.685-.3a9.46,9.46,0,0,0-1.968-.079q.6-.22.992-.394a2.87,2.87,0,0,0,.708-.441,6.256,6.256,0,0,0,.646-.646Q155.785,74.784,156.32,74.186Z" transform="translate(-126.903 -54.47)" stroke="rgba(0,0,0,0)" stroke-width="1" fill="url(#linear-gradient-2)"/>
        <path id="Path_48056" data-name="Path 48056" d="M231.237,55.781a9.64,9.64,0,0,0,.047-1.606,3.437,3.437,0,0,0-.173-.96c-.084-.21-.137-.346-.158-.41l3.968,4.031,5.607-7.874a5.873,5.873,0,0,0-.284.6,1.519,1.519,0,0,0-.11.882,1.237,1.237,0,0,0,.6.787,3.522,3.522,0,0,0,1.843.346,11,11,0,0,1,3.071.472,13.2,13.2,0,0,1,3.055,1.323,10.4,10.4,0,0,1,2.5,2.063,6.745,6.745,0,0,1,1.48,2.725,1.586,1.586,0,0,0-.3.771,1.934,1.934,0,0,0,.063.788,1.67,1.67,0,0,0,.346.63.979.979,0,0,0,.52.331,1.1,1.1,0,0,0-.41.708.543.543,0,0,0,.41.614,8.131,8.131,0,0,1-1.15,2.614,11.642,11.642,0,0,1-2.52,2.74,16.764,16.764,0,0,1-4.079,2.362,21.669,21.669,0,0,1-5.827,1.449,27.808,27.808,0,0,0,2.016,2.614,26.929,26.929,0,0,0,2.047,2.126,15.084,15.084,0,0,0,1.7,1.386q.724.488,1.008.394.251-.094-.111-.52a8.233,8.233,0,0,0-.96-.929q-.6-.5-1.213-.977t-.835-.63q.283.189,1.228.787t2.158,1.244a24.959,24.959,0,0,0,2.52,1.166,6.975,6.975,0,0,0,2.315.551q-1.2.85-2.268,1.528T247.5,81.135a14.547,14.547,0,0,0-1.212.945q-.441.394-.41.677-.41-.409-.914-.882t-.945-.85a4.337,4.337,0,0,0-.772-.551c-.22-.115-.341-.121-.362-.016a1.731,1.731,0,0,0,.283.756,20.353,20.353,0,0,0,1.134,1.8q.535.693,1.008,1.213t.85.929q-.5-.473-1.181-1.071t-1.307-1.1a9.485,9.485,0,0,0-1.118-.787q-.489-.284-.614-.126a.6.6,0,0,0-.079.583,4.18,4.18,0,0,0,.3.677,5.556,5.556,0,0,0,.567.787l-1.418,1.008a19,19,0,0,1-3.527-3.779,22.575,22.575,0,0,1-1.354-2.095,21.673,21.673,0,0,1-1.228-2.52,21.96,21.96,0,0,1-.976-2.976,19.1,19.1,0,0,1-.535-3.4l-6.709,12.315q.157-.316.551-1.118t.882-1.811q.488-1.009,1.008-2.11t.914-2.016q.393-.914.582-1.5t.063-.583c-.105,0-.268.153-.488.456a13.83,13.83,0,0,0-.756,1.2q-.425.739-.929,1.669t-.992,1.905q-.488.976-.929,1.89t-.756,1.606a1.49,1.49,0,0,0-.378-.457,1.561,1.561,0,0,0-.441-.252,2.26,2.26,0,0,0-.425-.11c-.136-.021-.246-.042-.331-.063a1,1,0,0,0-.5,0,.682.682,0,0,0-.22.094q.221-.535.346-.945a3.445,3.445,0,0,0,.173-.662q.048-.315-.11-.378-.063-.032-.315.315t-.567.85L222.7,81.7q-.346.551-.567.929.567-1.481,1.307-3.449t1.512-4.142q.772-2.173,1.575-4.441t1.527-4.346q.441.126.5,0c.042-.042.036-.094-.016-.157s-.11-.136-.173-.221l-.283-.284a1.016,1.016,0,0,0,.378-.063.793.793,0,0,0,.473-.252.4.4,0,0,0,.031-.283,1.7,1.7,0,0,0-.094-.346l-.189-.441a.556.556,0,0,0,.252-.063,1.376,1.376,0,0,0,.2-.173.762.762,0,0,0,.173-.331,2.264,2.264,0,0,0-.063-.787L230.8,58.1A15.828,15.828,0,0,0,231.237,55.781Zm13.087,5.071a6.957,6.957,0,0,0-2.079-1.087,14.054,14.054,0,0,0-2.6-.6q-1.386-.189-2.646-.252l1.638,1.669q-.221.189-.552.535t-.63.693a4.825,4.825,0,0,0-.488.661c-.126.21-.168.368-.126.473a.854.854,0,0,0,.22.41l.284.283-2.677,4.945a6.208,6.208,0,0,0,1.59.2,12.894,12.894,0,0,0,1.969-.126,15.725,15.725,0,0,0,2.11-.441,13.047,13.047,0,0,0,2.016-.74q.251,0,.5-.016a.877.877,0,0,0,.441-.142.638.638,0,0,0,.268-.331,1.164,1.164,0,0,0,.047-.3,5.113,5.113,0,0,0,1.527-1.78,3.576,3.576,0,0,0,.268-2.346A2.886,2.886,0,0,0,244.324,60.852Zm-3.732-11.984c-.042.042-.063.074-.063.094l.094-.126Zm2.74,25.732.063.032a.09.09,0,0,1-.063-.032.028.028,0,0,1-.032-.031A.028.028,0,0,0,243.332,74.6Z" transform="translate(-174.546 -48.836)" stroke="rgba(0,0,0,0)" stroke-width="1" fill="url(#linear-gradient-3)"/>
        <path id="Path_48057" data-name="Path 48057" d="M321.93,66.072q.441-1.448.63-2.393a5.9,5.9,0,0,0,.126-.725,1.312,1.312,0,0,0-.016-.473q-.048-.157-.2-.079a1.638,1.638,0,0,0-.441.456,3.276,3.276,0,0,0-.441-1.023,2.561,2.561,0,0,0-.945-.835,3.352,3.352,0,0,0-1.512-.315,9.528,9.528,0,0,0-1.89.2,15.543,15.543,0,0,0-2.11.6q-1.1.394-2.158.85t-2.031.929q-.977.473-1.733.882a26.624,26.624,0,0,1,6.331,1.26,32.4,32.4,0,0,1,4.63,1.953,21.64,21.64,0,0,1,3.843,2.614q-.064.851-.221,1.764-.158.788-.425,1.732a11.507,11.507,0,0,1-.709,1.858,12.666,12.666,0,0,0-3.149.929,21.988,21.988,0,0,0-2.851,1.5,19.22,19.22,0,0,0-2.3,1.67,13.438,13.438,0,0,0-1.5,1.449,16,16,0,0,1,1.433-1.5q.772-.709,1.418-1.276l1.039-.914q.393-.347.331-.441-.095-.063-.9.425a18.619,18.619,0,0,0-1.953,1.417q-1.15.929-2.472,2.22a21.01,21.01,0,0,0-2.426,2.835,3.992,3.992,0,0,1-.724-.095q-.473-.094-.992-.158a5.589,5.589,0,0,0-1.024-.031,1.752,1.752,0,0,0-.85.252q.44-.756.772-1.354a3.625,3.625,0,0,0,.394-.913c.042-.21-.042-.3-.252-.268a4.017,4.017,0,0,0-1.166.583,3.717,3.717,0,0,0-.614-.52,2.209,2.209,0,0,0-1.307-.33,5.7,5.7,0,0,0-2.157.567,13.832,13.832,0,0,0-3.2,2.173,6.289,6.289,0,0,1-.914-.3,6.028,6.028,0,0,0-.756-.268,1.878,1.878,0,0,0-.677-.063,1.438,1.438,0,0,0-.709.315,3.669,3.669,0,0,1-.567-.142q-.346-.11-.693-.236-.378-.126-.819-.315a46.087,46.087,0,0,1,4.5-3.937q1.039-.787,2.3-1.638t2.661-1.653q1.4-.8,2.945-1.512A28.749,28.749,0,0,1,308.7,72.56q-1.984.756-3.244,1.386a16.173,16.173,0,0,0-1.937,1.1,4.422,4.422,0,0,0-.9.755q-.221.284-.126.315a2.258,2.258,0,0,0,.709-.362q.645-.395,1.811-.992t2.772-1.307a36.266,36.266,0,0,1,3.575-1.338,35.411,35.411,0,0,1,4.221-1.055,27.192,27.192,0,0,1,4.708-.457,14.525,14.525,0,0,0-2.268-1.48,21.257,21.257,0,0,0-2.362-1.071,20.324,20.324,0,0,0-2.236-.709q-1.071-.267-1.874-.409a7.734,7.734,0,0,0-1.26-.142q-.457,0-.425.063.031.126.425.22t1.15.283q.756.189,1.905.551t2.725,1.024a20.882,20.882,0,0,0-4.157-1.2q-2.237-.409-4.268-.6t-3.559-.2q-1.528-.015-2.032-.016l-2.457.787a4.065,4.065,0,0,0,.472-.63,3.838,3.838,0,0,0,.283-.551.729.729,0,0,0,.032-.551,7.7,7.7,0,0,0,.929-.976,6.966,6.966,0,0,0,.772-1.134,1.16,1.16,0,0,0,.189-.835q-.095-.3-.788-.016a12.561,12.561,0,0,0,2.252-1.59q.488-.52.362-.74-.126-.252-.913-.189l.63-2.11q1.039-.819,2.11-1.606.913-.661,2.031-1.323a15.233,15.233,0,0,1,2.158-1.071,2.354,2.354,0,0,0,1.386.126,2.216,2.216,0,0,0,.914-.473,2.513,2.513,0,0,0,.661-.913,33.431,33.431,0,0,1,3.969-1.543,41.9,41.9,0,0,1,4.63-1.181,45.822,45.822,0,0,1,6.141-.772,1.6,1.6,0,0,0,.85.8,2.991,2.991,0,0,0,.976.173,3.031,3.031,0,0,0,1.1-.221Z" transform="translate(-223.003 -49.379)" stroke="rgba(0,0,0,0)" stroke-width="1" fill="url(#linear-gradient-4)"/>
        <path id="Path_48058" data-name="Path 48058" d="M389.621,74.186a4.687,4.687,0,0,1,.567-.031h.614q.362,0,.8-.031a4.278,4.278,0,0,0,.646-.819q.393-.6,1.15-2.015.787-1.543,1.512-2.835-1.008.252-1.811.409t-1.276.22a.773.773,0,0,0,.221-.645.783.783,0,0,0-.331-.488,1.941,1.941,0,0,0-.725-.283,2.633,2.633,0,0,0-.992,0q.913-.472,1.638-.913a7.316,7.316,0,0,0,1.165-.85,1.8,1.8,0,0,0,.535-.724q.095-.314-.283-.5.409-.22-.063-.441a5.709,5.709,0,0,0-1.323-.378,15.6,15.6,0,0,0-1.827-.221,7.774,7.774,0,0,0-1.606.031,11.815,11.815,0,0,0,2.047-.677,4.431,4.431,0,0,0,.976-.583.742.742,0,0,0,.315-.6,19.741,19.741,0,0,0,2.268-.22,5.041,5.041,0,0,0,.756-.173,2.321,2.321,0,0,0,.583-.268.618.618,0,0,0,.283-.347.538.538,0,0,0-.142-.441q1.291-.22,2.882-.472t3.338-.52q1.748-.267,3.575-.535t3.528-.52q-.095.409.378.551a.9.9,0,0,0,.882-.2,1.235,1.235,0,0,0,.5.032,2.443,2.443,0,0,0,.614-.142,1.881,1.881,0,0,0,.536-.3,1.078,1.078,0,0,0,.331-.409q1.26-.157,2.3-.3t1.827-.236q.882-.126,1.638-.22l-5.921,13.385.126-.5A5.884,5.884,0,0,0,412,69.1a4.972,4.972,0,0,0-.016-1.039,2.566,2.566,0,0,0-.315-.992,1.838,1.838,0,0,0-.756-.709,2.694,2.694,0,0,0-1.354-.236,25.627,25.627,0,0,0-2.787.283q-1.4.221-2.661.488l-2.3.488q-1.039.221-1.7.315.692-.252,1.842-.551t2.22-.567q1.07-.267,1.827-.5t.662-.331q-.064-.063-.74.079t-1.764.394q-1.087.252-2.457.6t-2.787.693a6.549,6.549,0,0,0,.157.882,2.345,2.345,0,0,0,.473.961,2.135,2.135,0,0,0,.945.646,2.561,2.561,0,0,0,1.575-.063q-.63.693-1.386,1.654T399.1,73.682l.819-.095a3.171,3.171,0,0,0,1.008-.236q.251-.141.252-.3c0-.1-.084-.22-.252-.346l5.795-1.166a1.466,1.466,0,0,0-.315.284.692.692,0,0,0-.126.3.487.487,0,0,0,.094.362.687.687,0,0,0,.41.268,2.967,2.967,0,0,0,.677.095q.393.016.929.031t1.2.079a3.017,3.017,0,0,0-.914.362,2.87,2.87,0,0,0-.662.567,5.376,5.376,0,0,0-.535.756q-.252.425-.567.9-.977-.031-2.158.016t-2.457.173q-1.276.126-2.583.3t-2.536.362l-1.8,2.6q-.882,1.275-1.638,2.409,1.921-.536,2.85-.85t1.26-.473q.33-.157.268-.2a.192.192,0,0,0-.095-.047q.095-.032.914-.22t2.063-.52q1.244-.33,2.74-.756t2.976-.9q0,.378.473.473a3.379,3.379,0,0,0,1.039.031,12.479,12.479,0,0,0,1.512-.252L410,78a2,2,0,0,0,.221.3c.084.094.157.184.221.268a4.164,4.164,0,0,0-1.654.661,4.656,4.656,0,0,0-1.181,1.118,3.024,3.024,0,0,0-.551,1.213.824.824,0,0,0,.268.882,2.621,2.621,0,0,0-.976.252,1.316,1.316,0,0,0-.5.441,1.655,1.655,0,0,0-.252.6,9.244,9.244,0,0,1-.977.252q-1.039.22-3.37.693a1.77,1.77,0,0,0,.346-.378q.095-.158-.094-.22a2.1,2.1,0,0,0-.724-.016q-.536.048-1.575.236-.41.063-1.2.221t-1.716.331q-.929.173-1.906.378t-1.78.394q-.8.189-1.307.315t-.5.189q0,.063.661-.032t1.685-.268q1.023-.174,2.22-.346t2.236-.3q-1.89.409-3.89.882t-3.7.913q-1.953.5-3.874,1.008a3.433,3.433,0,0,0,.11-1.166,5.935,5.935,0,0,0-.173-1.039,4.71,4.71,0,0,0-.378-1.04l4.378-7.716q-.725-.157-1.685-.3a9.459,9.459,0,0,0-1.968-.079q.6-.22.992-.394a2.872,2.872,0,0,0,.709-.441,6.293,6.293,0,0,0,.646-.646Q389.085,74.784,389.621,74.186Z" transform="translate(-286.253 -54.47)" stroke="rgba(0,0,0,0)" stroke-width="1" fill="url(#linear-gradient-2)"/>
        <path id="Path_48059" data-name="Path 48059" d="M464.538,55.781a9.671,9.671,0,0,0,.047-1.606,3.436,3.436,0,0,0-.173-.96c-.084-.21-.137-.346-.158-.41l3.969,4.031,5.606-7.874a5.83,5.83,0,0,0-.283.6,1.522,1.522,0,0,0-.111.882,1.238,1.238,0,0,0,.6.787,3.522,3.522,0,0,0,1.843.346,11,11,0,0,1,3.071.472A13.189,13.189,0,0,1,482,53.372a10.394,10.394,0,0,1,2.5,2.063,6.741,6.741,0,0,1,1.48,2.725,1.59,1.59,0,0,0-.3.771,1.935,1.935,0,0,0,.063.788,1.67,1.67,0,0,0,.346.63.98.98,0,0,0,.52.331,1.1,1.1,0,0,0-.409.708.542.542,0,0,0,.409.614,8.131,8.131,0,0,1-1.15,2.614,11.634,11.634,0,0,1-2.52,2.74,16.762,16.762,0,0,1-4.079,2.362,21.673,21.673,0,0,1-5.827,1.449,27.7,27.7,0,0,0,2.016,2.614,26.874,26.874,0,0,0,2.047,2.126,15.081,15.081,0,0,0,1.7,1.386q.724.488,1.008.394.251-.094-.11-.52a8.265,8.265,0,0,0-.961-.929q-.6-.5-1.212-.977t-.835-.63q.283.189,1.228.787t2.157,1.244a25.028,25.028,0,0,0,2.52,1.166,6.977,6.977,0,0,0,2.315.551q-1.2.85-2.268,1.528T480.8,81.135a14.594,14.594,0,0,0-1.212.945q-.441.394-.41.677-.409-.409-.913-.882t-.945-.85a4.335,4.335,0,0,0-.772-.551q-.331-.173-.362-.016a1.731,1.731,0,0,0,.283.756,20.509,20.509,0,0,0,1.134,1.8q.535.693,1.008,1.213t.85.929q-.5-.473-1.181-1.071t-1.307-1.1a9.489,9.489,0,0,0-1.118-.787q-.489-.284-.614-.126a.6.6,0,0,0-.079.583,4.175,4.175,0,0,0,.3.677,5.555,5.555,0,0,0,.567.787l-1.417,1.008a19,19,0,0,1-3.527-3.779,22.587,22.587,0,0,1-1.354-2.095,21.668,21.668,0,0,1-1.229-2.52,21.956,21.956,0,0,1-.976-2.976,19.132,19.132,0,0,1-.535-3.4l-6.709,12.315q.157-.316.551-1.118t.882-1.811q.488-1.009,1.008-2.11t.913-2.016q.393-.914.583-1.5t.063-.583c-.1,0-.268.153-.488.456a13.844,13.844,0,0,0-.756,1.2q-.425.739-.929,1.669t-.992,1.905q-.488.976-.929,1.89t-.756,1.606a1.485,1.485,0,0,0-.378-.457,1.561,1.561,0,0,0-.441-.252,2.263,2.263,0,0,0-.425-.11c-.136-.021-.247-.042-.331-.063a1,1,0,0,0-.5,0,.684.684,0,0,0-.221.094q.221-.535.346-.945a3.445,3.445,0,0,0,.173-.662c.031-.21-.005-.336-.11-.378q-.063-.032-.315.315t-.567.85q-.315.5-.662,1.055t-.567.929q.567-1.481,1.307-3.449t1.512-4.142q.772-2.173,1.575-4.441t1.528-4.346q.441.126.5,0c.042-.042.036-.094-.016-.157s-.11-.136-.173-.221l-.284-.284a1.015,1.015,0,0,0,.378-.063.793.793,0,0,0,.473-.252.4.4,0,0,0,.031-.283,1.7,1.7,0,0,0-.094-.346l-.189-.441a.555.555,0,0,0,.252-.063,1.359,1.359,0,0,0,.2-.173.758.758,0,0,0,.173-.331,2.265,2.265,0,0,0-.063-.787L464.1,58.1A15.835,15.835,0,0,0,464.538,55.781Zm13.086,5.071a6.96,6.96,0,0,0-2.079-1.087,14.057,14.057,0,0,0-2.6-.6q-1.386-.189-2.646-.252l1.638,1.669q-.221.189-.551.535t-.63.693a4.824,4.824,0,0,0-.488.661c-.126.21-.168.368-.126.473a.852.852,0,0,0,.221.41l.283.283-2.677,4.945a6.208,6.208,0,0,0,1.591.2,12.893,12.893,0,0,0,1.968-.126,15.712,15.712,0,0,0,2.11-.441,13.022,13.022,0,0,0,2.016-.74q.252,0,.5-.016a.877.877,0,0,0,.441-.142.638.638,0,0,0,.268-.331,1.151,1.151,0,0,0,.047-.3,5.112,5.112,0,0,0,1.527-1.78,3.576,3.576,0,0,0,.268-2.346A2.886,2.886,0,0,0,477.624,60.852Zm-3.732-11.984c-.042.042-.063.074-.063.094l.095-.126Zm2.74,25.732.063.032a.091.091,0,0,1-.063-.032.028.028,0,0,1-.032-.031A.028.028,0,0,0,476.632,74.6Z" transform="translate(-333.895 -48.836)" stroke="rgba(0,0,0,0)" stroke-width="1" fill="url(#linear-gradient-3)"/>
        <path id="Path_48060" data-name="Path 48060" d="M559.154,57.887a6.763,6.763,0,0,0-.378,1.166q-.127.472-.2.929a.9.9,0,0,0,.079.677.329.329,0,0,0,.378.173,1.919,1.919,0,0,0,.5-.173,2.328,2.328,0,0,0,.6-.41l-7.685,11.685,6.425-5.071a2.031,2.031,0,0,0,.693-.063,3.626,3.626,0,0,0,.756-.236,4.445,4.445,0,0,0,.882-.52q1.8-1.417,2.583-2.094a6.83,6.83,0,0,0,.9-.85q.11-.173-.252.016t-.882.5q-.52.316-.992.63a6.165,6.165,0,0,0-.536.378L572.6,54.863l1.134,2.174a.673.673,0,0,0-.472.031.4.4,0,0,0-.173.346,1.631,1.631,0,0,0,.3.788q.315.536.725,1.15t.756,1.149q.409.631.85,1.26a12.459,12.459,0,0,1-1.512,1.229,15.21,15.21,0,0,1-1.606,1.07,12.407,12.407,0,0,1-1.921.914q-.126-.347-.614-.315a3.44,3.44,0,0,0-1.134.315,8.577,8.577,0,0,0-1.307.724,8.086,8.086,0,0,0-1.134.9,3.264,3.264,0,0,0-.662.835q-.189.378.158.535a7.894,7.894,0,0,0-1.166.441q-.693.316-1.512.756t-1.7.96q-.883.519-1.732,1.024-1.985,1.228-4.221,2.677a29.727,29.727,0,0,0,1.622,3.685q.9,1.7,1.874,3.307a12.027,12.027,0,0,0,1.307,1.779,5.991,5.991,0,0,0,1.087.992q.441.284.614.095t-.142-.945a6.722,6.722,0,0,0,1.543,1.181,5.633,5.633,0,0,0,1.591.583,6.69,6.69,0,0,0,1.559.126,8.066,8.066,0,0,0,1.449-.189,10.471,10.471,0,0,0,3.181-1.291l.6.945Q569.7,85.161,568,86.013q-.725.377-1.386.756t-1.165.693a5.026,5.026,0,0,0-.756.551q-.252.236-.126.33.251.252,1.008.016a13.118,13.118,0,0,0,1.574-.614q.976-.441,2.142-1.071-1.229.851-2.74,1.8-1.323.819-3.15,1.874T559.312,92.5a35.286,35.286,0,0,1-3.339-3.512q-1.165-1.464-1.716-2.3t-.677-1.008q-.127-.174-.221.362a19.832,19.832,0,0,1-1.291-2.535q-.567-1.339-.992-2.646t-.725-2.5q-.3-1.2-.488-2.11l-3.622,7.59a2.293,2.293,0,0,0,0-.756,1.1,1.1,0,0,0-.221-.441c-.106-.126-.273-.137-.5-.032q.126-.787-.079-.929t-.6.283a7.492,7.492,0,0,0-.914,1.338,20.012,20.012,0,0,0-1.055,2.2,5.667,5.667,0,0,0-.095-1.1,4.534,4.534,0,0,0-.22-.787,2.918,2.918,0,0,0-.315-.63q.378-.976.662-1.8a9.244,9.244,0,0,0,.378-1.307q.126-.615-.031-.74a.337.337,0,0,0-.315-.032,1.081,1.081,0,0,0-.315.205,3.626,3.626,0,0,0-.283.283,1.2,1.2,0,0,0-.158.2q.095-.158.5-1.008t1.039-2.126q.63-1.276,1.386-2.9t1.512-3.323c.105.189.268.163.489-.079a3.512,3.512,0,0,0,.583-.913,2.955,2.955,0,0,0,.283-1.008Q548,68,547.6,68.091q.5-1.29.913-2.488t.709-2.22q.3-1.023.488-1.827t.315-1.276a4.194,4.194,0,0,0-.079,1.1q.047.315.2.268t.378-.425a4.9,4.9,0,0,0,.409-.977,6.275,6.275,0,0,0,.268-1.338,7.463,7.463,0,0,0,0-1.528,4.617,4.617,0,0,0-.347-1.37,1.665,1.665,0,0,0-.771-.866l.378-.945Z" transform="translate(-393.142 -52.501)" stroke="rgba(0,0,0,0)" stroke-width="1" fill="url(#linear-gradient-7)"/>
      </g>
    </g>
  </g>
</svg>
