<svg id="Icon_feather-copy" data-name="Icon feather-copy" xmlns="http://www.w3.org/2000/svg" width="17.556" height="17.556" viewBox="0 0 17.556 17.556">
  <path id="Path_32723" data-name="Path 32723" d="M15.289,12.8h7.075a2.492,2.492,0,0,1,2.489,2.489v7.075a2.492,2.492,0,0,1-2.489,2.489H15.289A2.492,2.492,0,0,1,12.8,22.364V15.289A2.492,2.492,0,0,1,15.289,12.8Zm7.075,10.219a.656.656,0,0,0,.655-.655V15.289a.656.656,0,0,0-.655-.655H15.289a.656.656,0,0,0-.655.655v7.075a.656.656,0,0,0,.655.655Z" transform="translate(-7.298 -7.298)" fill="#fff"/>
  <path id="Path_32724" data-name="Path 32724" d="M5.575,14.353H4.789A2.492,2.492,0,0,1,2.3,11.864V4.789A2.492,2.492,0,0,1,4.789,2.3h7.075a2.492,2.492,0,0,1,2.489,2.489v.786a.917.917,0,1,1-1.834,0V4.789a.656.656,0,0,0-.655-.655H4.789a.656.656,0,0,0-.655.655v7.075a.656.656,0,0,0,.655.655h.786a.917.917,0,1,1,0,1.834Z" transform="translate(-2.3 -2.3)" fill="#fff"/>
</svg>
