<svg xmlns="http://www.w3.org/2000/svg" width="27" height="27" viewBox="0 0 27 27">
  <path id="Path_49276" data-name="Path 49276" d="M22.192,3.808A13,13,0,1,0,3.808,22.192,13,13,0,1,0,22.192,3.808ZM4.886,4.886A11.447,11.447,0,0,1,8.834,2.3,10.718,10.718,0,0,0,7.746,3.976a14.976,14.976,0,0,0-1,2.389,23.484,23.484,0,0,1-2.661-.589A11.7,11.7,0,0,1,4.886,4.886ZM3.16,7.088a23.555,23.555,0,0,0,3.172.752,22.134,22.134,0,0,0-.562,4.4H1.551A11.372,11.372,0,0,1,3.16,7.088ZM3.077,18.771a11.374,11.374,0,0,1-1.526-5.008H5.773a22.112,22.112,0,0,0,.551,4.275A24.717,24.717,0,0,0,3.077,18.771Zm1.809,2.343A11.676,11.676,0,0,1,3.98,20.1a24.658,24.658,0,0,1,2.753-.581,15,15,0,0,0,1.012,2.42,10.542,10.542,0,0,0,1.194,1.8A11.444,11.444,0,0,1,4.886,21.114Zm7.351,3.165a5.684,5.684,0,0,1-3.145-3.06,13.261,13.261,0,0,1-.82-1.909c1.256-.138,2.592-.22,3.965-.239Zm0-6.732a42.968,42.968,0,0,0-4.4.28A20.455,20.455,0,0,1,7.3,13.763h4.939v3.784Zm0-5.309H7.3a20.485,20.485,0,0,1,.55-4.174,42.34,42.34,0,0,0,4.392.308Zm0-5.392c-1.379-.028-2.712-.118-3.959-.264a13.259,13.259,0,0,1,.814-1.89,5.684,5.684,0,0,1,3.145-3.06Zm10.651.324a11.375,11.375,0,0,1,1.561,5.068H20.23a22.161,22.161,0,0,0-.551-4.349A24.907,24.907,0,0,0,22.888,7.169ZM21.114,4.886a11.686,11.686,0,0,1,.859.96,24.891,24.891,0,0,1-2.7.564,15.012,15.012,0,0,0-1.017-2.435A10.718,10.718,0,0,0,17.166,2.3,11.447,11.447,0,0,1,21.114,4.886Zm-7.351,8.877H18.7a20.428,20.428,0,0,1-.549,4.094,42.382,42.382,0,0,0-4.39-.3Zm0-1.525V8.376a43.014,43.014,0,0,0,4.4-.277,20.507,20.507,0,0,1,.541,4.139H13.763Zm0-10.605h0a5.684,5.684,0,0,1,3.145,3.06,13.279,13.279,0,0,1,.825,1.922c-1.257.138-2.6.219-3.97.237Zm0,22.647v-5.2c1.377.027,2.71.116,3.956.262a13.251,13.251,0,0,1-.811,1.882A5.684,5.684,0,0,1,13.763,24.279Zm7.351-3.165a11.442,11.442,0,0,1-4.053,2.624,10.542,10.542,0,0,0,1.194-1.8,14.97,14.97,0,0,0,1-2.382,23.461,23.461,0,0,1,2.718.6A11.693,11.693,0,0,1,21.114,21.114Zm1.768-2.274a23.555,23.555,0,0,0-3.216-.762,22.094,22.094,0,0,0,.561-4.316h4.222A11.375,11.375,0,0,1,22.882,18.84Z" transform="translate(0.5 0.5)" fill="#fff" stroke="rgba(0,0,0,0)" stroke-width="1"/>
</svg>
