<svg xmlns="http://www.w3.org/2000/svg" width="31" height="24" viewBox="0 0 31 24">
  <g id="icon-discord" transform="translate(-6.165 -65.875)">
    <g id="Group_20860" data-name="Group 20860" transform="translate(6.165 65.875)">
      <path id="Path_44313" data-name="Path 44313" d="M29.094,89.875H29a.678.678,0,0,1-.625-.351,17.694,17.694,0,0,1-1.489-2.433l-.149-.147.031-.344a.6.6,0,0,1,.028-.107,17.98,17.98,0,0,1-10.207-.009.683.683,0,0,1,.031.122l.045.308-.159.167a17.544,17.544,0,0,1-1.537,2.5l-.06.071a.728.728,0,0,1-.521.224l-.178-.027A26.051,26.051,0,0,1,6.58,85.993l-.244-.18-.048-.347a26.833,26.833,0,0,1,.57-8.591,27.9,27.9,0,0,1,3.939-8.8l.157-.174.149-.094a26.578,26.578,0,0,1,6.228-1.926l.1-.009a.744.744,0,0,1,.521.223l.107.145c.2.384.4.786.593,1.2a21.465,21.465,0,0,1,6.081,0c.189-.415.388-.816.592-1.2l.107-.145a.745.745,0,0,1,.522-.223l.1.009a26.648,26.648,0,0,1,6.229,1.926l.216.163.077.09a25.711,25.711,0,0,1,4.47,17.4l0,.357-.248.18a26.923,26.923,0,0,1-7.625,3.852ZM7.459,85.151a24.822,24.822,0,0,0,6.753,3.438,16.474,16.474,0,0,0,1-1.615,15.117,15.117,0,0,1-1.888-.949l-.113-.087a.7.7,0,0,1-.223-.62l.049-.306.245-.144c.163-.132.311-.247.444-.347a.67.67,0,0,1,.461-.171h.129l.117.053a17.1,17.1,0,0,0,14.522,0l.118-.054H29.8l.023.307q.153.107.309.229a.7.7,0,0,1,0,1.044l-.122.1a16.686,16.686,0,0,1-1.841.944,16.175,16.175,0,0,0,1,1.618,25.721,25.721,0,0,0,6.7-3.4,24.549,24.549,0,0,0-4.207-16.341,25.416,25.416,0,0,0-5.458-1.715c-.2.388-.389.794-.572,1.213l-.187.425L25,68.695a20.274,20.274,0,0,0-6.6,0l-.459.075-.185-.426c-.182-.416-.373-.822-.572-1.212a25.383,25.383,0,0,0-5.451,1.712,26.53,26.53,0,0,0-3.7,8.3A25.615,25.615,0,0,0,7.459,85.151Zm19.208-2.5h-.026a3.157,3.157,0,0,1-2.3-1.118,3.938,3.938,0,0,1-.961-2.51,4.128,4.128,0,0,1,.9-2.544,3.309,3.309,0,0,1,2.363-1.082,3.231,3.231,0,0,1,2.4,1.118,3.878,3.878,0,0,1,.909,2.46,3.95,3.95,0,0,1-.962,2.559,3.025,3.025,0,0,1-2.3,1.118Zm-.025-6.057a2.078,2.078,0,0,0-1.466.677,2.869,2.869,0,0,0-.6,1.752,2.708,2.708,0,0,0,.664,1.717,1.978,1.978,0,0,0,1.43.712,1.865,1.865,0,0,0,1.415-.7,2.749,2.749,0,0,0,.677-1.781,2.644,2.644,0,0,0-.614-1.669A2.023,2.023,0,0,0,26.641,76.591Zm-9.918,6.057H16.7a3.159,3.159,0,0,1-2.3-1.118,3.983,3.983,0,0,1,0-5.069,3.076,3.076,0,0,1,4.7.051,3.519,3.519,0,0,1,.91,2.484,3.716,3.716,0,0,1-.91,2.535,3.208,3.208,0,0,1-2.35,1.118ZM16.7,76.591a2.028,2.028,0,0,0-1.417.677,2.788,2.788,0,0,0,.012,3.468,1.985,1.985,0,0,0,1.431.712,2.023,2.023,0,0,0,1.478-.712,2.514,2.514,0,0,0,.611-1.741,2.337,2.337,0,0,0-.6-1.677A2.036,2.036,0,0,0,16.7,76.591Z" transform="translate(-6.165 -65.875)" fill="#fff"/>
    </g>
  </g>
</svg>
