<svg xmlns="http://www.w3.org/2000/svg" width="20.285" height="22" viewBox="0 0 20.285 22">
  <path id="green" d="M7.35,22a.511.511,0,0,1-.361-.872L8.41,19.707V17.769l-1.5-.843A4.659,4.659,0,0,1,0,12.847,4.708,4.708,0,0,1,2.471,8.734a3.625,3.625,0,0,1,.7-4.162A3.676,3.676,0,0,1,5.73,3.507,4.431,4.431,0,0,1,8,.063.517.517,0,0,1,8.245,0a.511.511,0,0,1,.248.958A3.416,3.416,0,0,0,6.729,3.947l0,.094a.51.51,0,0,1-.173.4.516.516,0,0,1-.415.122,2.583,2.583,0,0,0-.39-.029A2.641,2.641,0,0,0,3.9,5.295a2.609,2.609,0,0,0-.282,3.372.511.511,0,0,1-.236.775,3.638,3.638,0,1,0,3.24,6.469l.606-1.538a.509.509,0,0,1,.723-.259l.853.474V12.618a.512.512,0,0,1,.511-.51h1.778a.511.511,0,0,1,.51.51v1.794l.519-.316a.515.515,0,0,1,.411-.052.509.509,0,0,1,.315.269l.735,1.543a3.638,3.638,0,0,0,5.682-3.009,3.657,3.657,0,0,0-2.358-3.406.51.51,0,0,1-.236-.775,2.61,2.61,0,0,0-.282-3.372,2.643,2.643,0,0,0-1.858-.766,2.571,2.571,0,0,0-.389.029.515.515,0,0,1-.415-.122.508.508,0,0,1-.173-.4V3.946A3.417,3.417,0,0,0,11.8.963a.511.511,0,0,1,.249-.957A.515.515,0,0,1,12.3.07a4.433,4.433,0,0,1,2.258,3.437A3.674,3.674,0,0,1,17.11,4.572a3.623,3.623,0,0,1,.7,4.162,4.659,4.659,0,0,1-2.187,8.772,4.649,4.649,0,0,1-2.285-.6L11.875,18v1.712L13.3,21.128a.511.511,0,0,1-.361.872Zm.273-5.845,1.548.87a.512.512,0,0,1,.261.446v2.448a.508.508,0,0,1-.149.361l-.7.7H11.7l-.7-.7a.509.509,0,0,1-.15-.361V17.738a.514.514,0,0,1,.207-.411l1.546-1.144-.438-.92-.812.493a.518.518,0,0,1-.516.008.511.511,0,0,1-.26-.444v-2.19H9.824v2.327a.513.513,0,0,1-.251.44.519.519,0,0,1-.508.006l-1.1-.612Z" fill="#fff"/>
</svg>
