<svg xmlns="http://www.w3.org/2000/svg" width="22" height="22" viewBox="0 0 22 22">
  <g id="validator" transform="translate(-3 -3)">
    <path id="Path_49938" data-name="Path 49938" d="M27.309,22.56l-5.28,5.276-2.61-2.594a.759.759,0,1,0-1.073,1.073l3.148,3.148a.759.759,0,0,0,1.073,0l5.815-5.834a.759.759,0,0,0-1.073-1.073Z" transform="translate(-9.387 -12)" fill="#fff"/>
    <path id="Path_49939" data-name="Path 49939" d="M14,3A11,11,0,1,0,25,14,11,11,0,0,0,14,3Zm0,20.483A9.483,9.483,0,1,1,23.483,14,9.483,9.483,0,0,1,14,23.483Z" fill="#fff"/>
  </g>
</svg>
