<svg xmlns="http://www.w3.org/2000/svg" xmlns:xlink="http://www.w3.org/1999/xlink" width="96" height="96" viewBox="0 0 96 96">
  <defs>
    <linearGradient id="linear-gradient" x1="0.5" x2="0.5" y2="1" gradientUnits="objectBoundingBox">
      <stop offset="0" stop-color="#78dba3"/>
      <stop offset="0.547" stop-color="#25a7de"/>
      <stop offset="1" stop-color="#f20587"/>
    </linearGradient>
  </defs>
  <g id="icon-security" transform="translate(-34.642 -87.783)">
    <path id="Path_210" data-name="Path 210" d="M82.643,87.783a48,48,0,1,0,48,48A48.055,48.055,0,0,0,82.643,87.783Zm0,93.05a45.05,45.05,0,1,1,45.049-45.05A45.1,45.1,0,0,1,82.643,180.833Z" transform="translate(0 0)" fill="url(#linear-gradient)"/>
    <path id="Path_211" data-name="Path 211" d="M105.344,118.569l-21.589-11.6a1.476,1.476,0,0,0-1.4,0l-21.59,11.6a1.476,1.476,0,0,0-.753,1.04c-.057.316-5.31,31.7,22.377,45.654a1.468,1.468,0,0,0,1.327,0c27.687-13.952,22.434-45.339,22.377-45.654A1.476,1.476,0,0,0,105.344,118.569ZM83.058,162.288c-23.093-12.125-20.87-36.9-20.242-41.468l20.242-10.877L103.3,120.82C103.926,125.387,106.15,150.163,83.058,162.288Z" transform="translate(-0.415 -0.316)" fill="url(#linear-gradient)"/>
    <path id="Path_212" data-name="Path 212" d="M90.917,128.807h-.162v-1.531a7.488,7.488,0,1,0-14.977,0v1.531h-.161a3.45,3.45,0,0,0-3.446,3.446v10.49a3.45,3.45,0,0,0,3.446,3.445h15.3a3.45,3.45,0,0,0,3.446-3.445v-10.49A3.45,3.45,0,0,0,90.917,128.807Zm-12.189-1.531a4.538,4.538,0,1,1,9.076,0v1.531H78.728Zm12.684,15.467a.5.5,0,0,1-.5.495h-15.3a.5.5,0,0,1-.5-.495v-10.49a.5.5,0,0,1,.5-.5h1.5c.044,0,.088.014.133.014s.089-.01.134-.014H89.146c.044,0,.088.014.134.014s.089-.01.134-.014h1.5a.5.5,0,0,1,.5.5Z" transform="translate(-0.625 -0.533)" fill="url(#linear-gradient)"/>
    <path id="Path_213" data-name="Path 213" d="M84.611,134.776h-2.4a1.474,1.474,0,0,0-.272,2.923v2.865a1.475,1.475,0,1,0,2.95,0V137.7a1.474,1.474,0,0,0-.273-2.923Z" transform="translate(-0.767 -0.782)" fill="url(#linear-gradient)"/>
  </g>
</svg>
