<?xml version="1.0" encoding="utf-8"?>
<!-- Generator: Adobe Illustrator 25.4.1, SVG Export Plug-In . SVG Version: 6.00 Build 0)  -->
<svg version="1.1" id="Layer_1" xmlns="http://www.w3.org/2000/svg" xmlns:xlink="http://www.w3.org/1999/xlink" x="0px" y="0px"
	 viewBox="0 0 22 22" style="enable-background:new 0 0 22 22;" xml:space="preserve">
<style type="text/css">
	.st0{fill:#FFFFFF;}
</style>
<path id="Union_169" class="st0" d="M0.5,21.5C0,21-0.1,20.3,0.1,19.7L5.4,7.4v0c0.1-0.3,0.3-0.5,0.5-0.6c0.4-0.3,1-0.6,2.3-0.1
	c0.1-0.2,0.2-0.5,0.4-0.6l0.7-0.7c0.5-0.5,1.2-0.7,1.9-0.5l0.7,0.2l-0.3-1c-0.2-0.7,0.2-1.4,0.9-1.7c0.7-0.2,1.4,0.2,1.6,0.9
	c0,0,0,0,0,0l0.4,1.4c0.2,0.7,0,1.4-0.5,1.9l-0.7,0.7c-0.5,0.5-1.2,0.7-1.9,0.5h0l-0.7-0.2l0.3,1c0.4,0.3,0.7,0.7,1.1,1
	c1.1,1,1.9,2.3,2.6,3.6c0.4,0.7,0.6,1.5,0.4,2.3c0,0,0,0,0,0.1c-0.1,0.4-0.4,0.8-0.8,1l0,0L2.3,21.9C2.1,21.9,1.8,22,1.6,22
	C1.2,22,0.8,21.8,0.5,21.5z M0.9,20L0.9,20c-0.1,0.3-0.1,0.6,0.1,0.9c0.2,0.2,0.6,0.3,0.8,0.2l0,0L13,16.2c-0.3-0.1-0.6-0.2-0.9-0.3
	c-1.3-0.7-2.5-1.6-3.5-2.7C7.5,12.2,6.7,11,6,9.6C5.9,9.4,5.8,9.1,5.7,8.9L0.9,20z M6.5,7.4C6.3,7.6,6.3,8.2,6.8,9.3
	c0.6,1.2,1.5,2.4,2.4,3.3c1,1,2.1,1.8,3.3,2.5c1,0.5,1.6,0.5,1.8,0.3c0.2-0.2,0.2-0.7-0.1-1.5c-0.4,0.3-1,0.3-1.3-0.1
	c-0.4-0.4-0.4-1,0-1.4c0.1-0.1,0.2-0.2,0.4-0.2c-0.5-0.7-1-1.4-1.7-2C11.4,10,11.2,9.8,11,9.6c-0.3,0.6-1.1,0.9-1.8,0.5
	C9.1,10.1,9,10,8.9,9.9C8.8,9.7,8.7,9.5,8.6,9.3L8.2,7.9c0-0.1-0.1-0.2-0.1-0.4C7.8,7.4,7.4,7.3,7,7.3C6.8,7.3,6.6,7.3,6.5,7.4z
	 M13.2,12.8c-0.2,0.2-0.2,0.5,0,0.7c0.2,0.2,0.5,0.2,0.6,0c0,0,0,0,0,0c0.2-0.2,0.2-0.5,0-0.7C13.7,12.6,13.4,12.6,13.2,12.8
	C13.2,12.7,13.2,12.7,13.2,12.8z M9.3,6.7C9,6.9,8.9,7.3,9,7.7l0.4,1.4c0,0.1,0.1,0.1,0.1,0.2c0.2,0.2,0.5,0.2,0.6,0
	c0,0,0.1-0.1,0.1-0.1c0.1-0.1,0.1-0.2,0-0.4c0,0,0,0,0,0L9.8,7l0,0L9.6,6.3L9.3,6.7z M10.3,5.7l0.2,0.8l1.3,0.4
	C12,7,12.3,7,12.5,6.9L12.2,6L11,5.7l0,0c-0.1,0-0.2,0-0.3,0C10.6,5.7,10.4,5.7,10.3,5.7z M12.8,3.2c-0.2,0.1-0.4,0.3-0.3,0.6v0
	L13,5.6l0,0l0.2,0.7l0.3-0.3c0.3-0.3,0.4-0.7,0.2-1l-0.4-1.4c-0.1-0.2-0.2-0.3-0.4-0.3C12.9,3.2,12.8,3.2,12.8,3.2z M4.2,15.7
	C4,15.6,3.9,15.4,4,15.1l0.5-1.3c0.1-0.2,0.3-0.3,0.6-0.2c0,0,0,0,0,0c0.2,0.1,0.3,0.4,0.2,0.6l-0.5,1.3c-0.1,0.2-0.2,0.3-0.4,0.3
	C4.3,15.7,4.2,15.7,4.2,15.7z M17.3,13.7c-0.4-0.4-0.4-1,0-1.4c0.4-0.4,1-0.4,1.4,0c0,0,0,0,0,0c0.4,0.4,0.4,1,0,1.4
	C18.3,14,17.7,14,17.3,13.7C17.3,13.7,17.3,13.7,17.3,13.7z M17.7,12.6c-0.2,0.2-0.2,0.5,0,0.7c0.2,0.2,0.5,0.2,0.6,0c0,0,0,0,0,0
	c0.2-0.2,0.2-0.5,0-0.7C18.2,12.4,17.9,12.4,17.7,12.6C17.7,12.6,17.7,12.6,17.7,12.6z M5.3,13c-0.2-0.1-0.3-0.4-0.2-0.6L5.3,12
	c0.1-0.2,0.3-0.3,0.6-0.2c0,0,0,0,0,0c0.2,0.1,0.3,0.4,0.2,0.6l-0.2,0.4C5.8,12.9,5.7,13,5.5,13C5.5,13,5.4,13,5.3,13z M20.7,11.9
	l-0.3-0.8c0,0,0-0.1-0.1-0.1l-0.7-0.3c-0.1,0-0.1-0.1-0.1-0.2c0,0,0,0,0.1-0.1l0.7-0.3c0,0,0.1,0,0.1-0.1l0.3-0.8
	c0-0.1,0.1-0.1,0.1-0.1c0,0,0.1,0,0.1,0.1l0.3,0.8c0,0,0,0.1,0.1,0.1l0.7,0.3c0.1,0,0.1,0.1,0.1,0.2c0,0,0,0-0.1,0.1l-0.7,0.3
	c0,0-0.1,0-0.1,0.1l-0.3,0.8C20.9,11.9,20.8,12,20.7,11.9C20.7,11.9,20.7,11.9,20.7,11.9z M16.5,10l-1.4-0.4
	c-0.2-0.1-0.4-0.2-0.6-0.3c-0.3-0.4-0.5-0.9-0.3-1.3c0.2-0.7,0.9-1.1,1.6-0.9c0,0,0,0,0,0l1,0.3l-0.2-0.7c0,0,0,0,0,0
	c-0.2-0.7,0-1.4,0.5-1.9L17.9,4c0.5-0.5,1.2-0.7,1.8-0.5l1.4,0.4c0.7,0.2,1.1,1,0.9,1.7c-0.1,0.3-0.3,0.6-0.6,0.8
	c-0.3,0.2-0.7,0.2-1,0.1l-1-0.3l0.2,0.7c0.2,0.7,0,1.4-0.5,1.9l-0.7,0.7c-0.3,0.4-0.8,0.5-1.3,0.5C16.8,10.1,16.6,10,16.5,10z
	 M15,8.2c0,0.2,0,0.3,0.1,0.5c0.1,0.1,0.1,0.1,0.2,0.1l1.4,0.4c0.4,0.1,0.7,0,1-0.2L18,8.6l-0.7-0.2l0,0l-1.7-0.5h0c0,0-0.1,0-0.1,0
	C15.3,7.8,15.1,8,15,8.2z M17.5,6.3l0.4,1.3l0.7,0.2c0.1-0.2,0.1-0.5,0-0.7l0,0l-0.3-1.2l-0.8-0.3C17.4,5.9,17.4,6.1,17.5,6.3z
	 M18.5,4.6l-0.3,0.3l0.7,0.2l0,0l1.7,0.5h0c0.1,0,0.2,0,0.3,0c0.2-0.1,0.3-0.4,0.2-0.6c-0.1-0.1-0.2-0.2-0.3-0.2l-1.4-0.4
	c-0.1,0-0.2,0-0.3,0C18.9,4.3,18.6,4.4,18.5,4.6z M8.6,3.6l-0.4-1c0,0,0-0.1-0.1-0.1L7.3,2.1C7.2,2.1,7.2,2,7.2,1.9
	c0,0,0-0.1,0.1-0.1l0.9-0.4c0,0,0.1-0.1,0.1-0.1l0.4-1c0-0.1,0.1-0.1,0.2-0.1c0.1,0,0.1,0.1,0.1,0.1l0.4,1c0,0,0,0.1,0.1,0.1
	l0.9,0.4c0.1,0,0.1,0.2,0.1,0.2c0,0,0,0.1-0.1,0.1L9.3,2.5c0,0-0.1,0.1-0.1,0.1l-0.4,1c0,0.1-0.1,0.1-0.2,0.1
	C8.7,3.7,8.6,3.7,8.6,3.6z M15.7,3.4c0-0.2,0.2-0.3,0.3-0.3c0.2,0,0.3,0.2,0.3,0.3c0,0.2-0.2,0.3-0.3,0.3
	C15.8,3.7,15.7,3.6,15.7,3.4z M15.7,1.7c-0.4-0.4-0.4-1,0-1.4c0.4-0.4,1-0.4,1.4,0c0,0,0,0,0,0c0.4,0.4,0.4,1,0,1.4
	C16.7,2.1,16.1,2.1,15.7,1.7C15.7,1.7,15.7,1.7,15.7,1.7z M16.1,0.7c-0.2,0.2-0.2,0.5,0,0.7c0.2,0.2,0.5,0.2,0.6,0c0,0,0,0,0,0
	c0.2-0.2,0.2-0.5,0-0.7C16.6,0.5,16.3,0.5,16.1,0.7C16.1,0.7,16.1,0.7,16.1,0.7z M20.4,1.8c-0.3,0-0.6-0.3-0.6-0.6
	c0-0.3,0.3-0.6,0.6-0.6s0.6,0.3,0.6,0.6C21.1,1.6,20.8,1.8,20.4,1.8L20.4,1.8z"/>
</svg>
