<?xml version="1.0" encoding="utf-8"?>
<!-- Generator: Adobe Illustrator 25.4.1, SVG Export Plug-In . SVG Version: 6.00 Build 0)  -->
<svg version="1.1" id="Layer_1" xmlns="http://www.w3.org/2000/svg" xmlns:xlink="http://www.w3.org/1999/xlink" x="0px" y="0px"
	 viewBox="0 0 22 16" style="enable-background:new 0 0 22 16;" xml:space="preserve">
<style type="text/css">
	.st0{fill:#FFFFFF;}
</style>
<path id="Icon" class="st0" d="M4.8,12.5c4.8,1.9,8.9,2.2,13.5-0.7c-0.8,1.1-2,1.8-3.3,2.1c0.5,0.7,1.2,1.5,1.2,1.5
	c1.5,0,3.1-0.4,4.3-1.3c1-0.7,1.6-1.8,1.5-3.1C21.8,9,21.3,7,20.5,5c-1-2.5-3.3-4.3-6-4.5c-0.2,0-0.4,0-0.5,0l-0.3,0.3
	c1.7,0.4,3.3,1.2,4.7,2.3C13.7,0.7,8.1,0.6,3.3,3c1.4-1.2,3.1-2,4.9-2.3L8,0.5c-0.4,0-0.7,0-1,0.1C4.5,1,2.4,2.7,1.5,5
	C0.7,7,0.2,9.2,0,11.3c-0.1,1.2,0.4,2.3,1.4,2.9c1.3,0.8,2.7,1.3,4.2,1.3c0,0,0.6-0.8,1.2-1.5c-1.3-0.3-2.4-1-3.2-2.1l0.4,0.2
	C4.3,12.3,4.6,12.4,4.8,12.5z M7.5,11.1c-1.1,0-2-0.8-2.1-1.9c0-1.1,0.8-2,1.9-2.1c1.1,0,2,0.8,2.1,1.9c0,0,0,0.1,0,0.1
	C9.4,10.2,8.5,11,7.5,11.1z M14.4,11.1c-1.1,0-2-0.8-2.1-1.9c0-1.1,0.8-2,1.9-2.1c1.1,0,2,0.8,2.1,1.9c0,0,0,0.1,0,0.1
	C16.3,10.2,15.4,11,14.4,11.1L14.4,11.1z"/>
</svg>
