<svg xmlns="http://www.w3.org/2000/svg" width="22" height="14.517" viewBox="0 0 22 14.517">
  <path id="dapps" d="M1.769,14.442A2.162,2.162,0,0,1,.4,13.166a7.487,7.487,0,0,1-.39-3.141,20.616,20.616,0,0,1,.6-3.957A13.978,13.978,0,0,1,1.843,2.731C2.9.851,4.091.013,5.691.013A11.2,11.2,0,0,1,8.349.473L8.6.534a15.8,15.8,0,0,0,2.267.434h.262A15.811,15.811,0,0,0,13.4.534l.213-.052A11.016,11.016,0,0,1,16.312,0c1.595,0,2.78.834,3.843,2.7A15,15,0,0,1,21.387,6.04a20.627,20.627,0,0,1,.6,3.957,7.35,7.35,0,0,1-.389,3.14,2.133,2.133,0,0,1-1.365,1.3,2.912,2.912,0,0,1-1.8-.193,12.61,12.61,0,0,1-3.508-2.491A5.824,5.824,0,0,0,11,10.562a5.825,5.825,0,0,0-3.923,1.194A12.6,12.6,0,0,1,3.57,14.247a3.034,3.034,0,0,1-1.208.269A2.313,2.313,0,0,1,1.769,14.442ZM2.362,14.418ZM15.74,10.936a10.874,10.874,0,0,0,3.116,2.232,1.787,1.787,0,0,0,1.051.132.983.983,0,0,0,.587-.623,6.254,6.254,0,0,0,.291-2.618,20.562,20.562,0,0,0-.567-3.729,12.335,12.335,0,0,0-1.131-3.042c-.789-1.422-1.694-2.056-2.932-2.056a9.427,9.427,0,0,0-2.2.379l-.054.013a15.75,15.75,0,0,1-2.7.518h-.424A15.991,15.991,0,0,1,8.1,1.626a9.267,9.267,0,0,0-2.247-.4A3.341,3.341,0,0,0,2.913,3.288,12.713,12.713,0,0,0,1.782,6.333a18.664,18.664,0,0,0-.567,3.727,6.394,6.394,0,0,0,.264,2.564.983.983,0,0,0,.589.623l.005,0a.779.779,0,0,0,.271.044,2.279,2.279,0,0,0,.774-.179,10.885,10.885,0,0,0,3.117-2.234A7.2,7.2,0,0,1,11,9.359,6.832,6.832,0,0,1,15.74,10.936ZM4.768,8.444a1.522,1.522,0,0,1-.484-.958A1.6,1.6,0,0,1,3.3,7,1.705,1.705,0,0,1,2.808,5.82,1.64,1.64,0,0,1,3.3,4.637l.03-.031a1.73,1.73,0,0,1,.953-.451A1.685,1.685,0,0,1,4.766,3.2,1.709,1.709,0,0,1,5.95,2.707,1.638,1.638,0,0,1,7.132,3.2l.028.028a1.65,1.65,0,0,1,.454.929,1.784,1.784,0,0,1,.954.479l0,0A1.7,1.7,0,0,1,9.062,5.82,1.637,1.637,0,0,1,8.573,7a1.527,1.527,0,0,1-.959.484,1.785,1.785,0,0,1-.479.953l0,0a1.7,1.7,0,0,1-1.183.491A1.637,1.637,0,0,1,4.768,8.444Zm-.6-2.983-.022.021a.458.458,0,0,0,.337.781h.381a.616.616,0,0,1,.614.615v.38a.471.471,0,1,0,.943,0V6.906a.615.615,0,0,1,.614-.614h.381a.471.471,0,1,0,0-.943H7.035a.615.615,0,0,1-.614-.614V4.353a.55.55,0,0,0-.112-.315l-.021-.022a.471.471,0,0,0-.809.337v.381a.615.615,0,0,1-.614.614H4.482A.55.55,0,0,0,4.168,5.461ZM14.676,7.748A1.049,1.049,0,1,1,15.724,8.8,1.049,1.049,0,0,1,14.676,7.748ZM16.6,5.82a1.05,1.05,0,1,1,1.05,1.049A1.051,1.051,0,0,1,16.6,5.82Zm-3.856,0A1.049,1.049,0,1,1,13.8,6.869,1.051,1.051,0,0,1,12.747,5.82Zm1.928-1.928a1.049,1.049,0,1,1,1.049,1.05A1.05,1.05,0,0,1,14.676,3.892Z" transform="translate(0)" fill="#fff"/>
</svg>
