<svg xmlns="http://www.w3.org/2000/svg" xmlns:xlink="http://www.w3.org/1999/xlink" width="96" height="96" viewBox="0 0 96 96">
  <defs>
    <linearGradient id="linear-gradient" x1="0.5" x2="0.5" y2="1" gradientUnits="objectBoundingBox">
      <stop offset="0" stop-color="#78dba3"/>
      <stop offset="0.547" stop-color="#25a7de"/>
      <stop offset="1" stop-color="#f20587"/>
    </linearGradient>
  </defs>
  <g id="icon-governance" transform="translate(-121.785 24.813)">
    <path id="Union_155" data-name="Union 155" d="M0,48A48,48,0,1,1,48,96,48.055,48.055,0,0,1,0,48Zm2.951,0A45.05,45.05,0,1,0,48,2.951,45.1,45.1,0,0,0,2.951,48Zm20.3,24.8a1.475,1.475,0,0,1-1.476-1.475v-20.1a1.475,1.475,0,0,1,1.476-1.476H43.976a1.475,1.475,0,0,1,1.475,1.476v20.1A1.475,1.475,0,0,1,43.976,72.8Zm1.475-2.951H42.5V52.705H24.723Zm30.71-1.222a1.473,1.473,0,0,1-1.475-1.474v-20.1a1.476,1.476,0,0,1,1.475-1.476H76.162a1.476,1.476,0,0,1,1.476,1.476v20.1a1.473,1.473,0,0,1-1.476,1.474Zm1.476-2.948H74.686V48.531H56.909Zm-25.933.2-2.9-2.692a1.476,1.476,0,0,1,2.009-2.162l1.857,1.729L37.1,57.6a1.476,1.476,0,0,1,2.087,2.087l-6.162,6.162a1.472,1.472,0,0,1-2.048.035Zm37.26-4.25L65.8,59.189,63.36,61.63a1.476,1.476,0,0,1-2.087-2.087l2.438-2.437-2.438-2.437a1.476,1.476,0,1,1,2.087-2.087L65.8,55.019l2.438-2.437a1.476,1.476,0,1,1,2.089,2.087l-2.44,2.438,2.44,2.438a1.476,1.476,0,0,1-2.089,2.087ZM33,40.282a1.475,1.475,0,0,1-1.475-1.476v-20.1A1.474,1.474,0,0,1,33,17.235h20.73A1.474,1.474,0,0,1,55.2,18.711v20.1a1.475,1.475,0,0,1-1.476,1.476Zm1.475-2.948h17.78V20.184H34.473Zm6.252-3.972-2.9-2.7a1.475,1.475,0,1,1,2.009-2.159l1.855,1.726,5.156-5.157a1.475,1.475,0,0,1,2.087,2.085l-6.162,6.164a1.477,1.477,0,0,1-2.048.037Z" transform="translate(121.785 -24.813)" fill="url(#linear-gradient)"/>
  </g>
</svg>
