<svg xmlns="http://www.w3.org/2000/svg" xmlns:xlink="http://www.w3.org/1999/xlink" width="97" height="97" viewBox="0 0 97 97">
  <defs>
    <linearGradient id="linear-gradient" x1="0.5" x2="0.5" y2="1" gradientUnits="objectBoundingBox">
      <stop offset="0" stop-color="#78dba3"/>
      <stop offset="0.547" stop-color="#25a7de"/>
      <stop offset="1" stop-color="#f20587"/>
    </linearGradient>
  </defs>
  <g id="icon-security" transform="translate(-34.142 -87.283)">
    <path id="Union_166" data-name="Union 166" d="M0,48A48,48,0,1,1,48,96,48.055,48.055,0,0,1,0,48Zm2.95,0A45.05,45.05,0,1,0,48,2.95,45.1,45.1,0,0,0,2.95,48ZM53.515,76.627a1.471,1.471,0,0,1,0-2.942h4.57V72.545A40.854,40.854,0,0,1,60.157,60.41a55.169,55.169,0,0,0,1.527-6.255,5.459,5.459,0,0,1-7.016-2.6,5.446,5.446,0,0,1-5.288.591,9.485,9.485,0,0,1-4.57,4.5A19.172,19.172,0,0,1,48.943,68.57a1.471,1.471,0,0,1-2.942,0,16.259,16.259,0,0,0-4.338-11.082,9.466,9.466,0,0,1-4.888-.843l-3.649-1.7a1.471,1.471,0,1,1,1.242-2.666l3.65,1.7A6.6,6.6,0,0,0,46,52.056L32.878,45.939a2.484,2.484,0,0,0-1.355-.224,2.543,2.543,0,0,0-2.043,1.462l-2.653,5.686a6.578,6.578,0,0,0,1.442,7.567l8.132,7.7A1.477,1.477,0,0,1,36.86,69.2v4.489h4.571a1.471,1.471,0,1,1,0,2.942H35.389a1.47,1.47,0,0,1-1.47-1.47V69.831l-7.673-7.266A9.517,9.517,0,0,1,24.162,51.62l2.651-5.687a5.455,5.455,0,0,1,2.858-2.742l.3-6.441a5.488,5.488,0,0,1,9.486-3.51,5.451,5.451,0,0,1,8.875,1.3,5.451,5.451,0,0,1,8.057,2.014,5.484,5.484,0,0,1,8.667,4.479v8.057a40.854,40.854,0,0,1-2.072,12.135,37.994,37.994,0,0,0-1.956,11.323v2.612a1.469,1.469,0,0,1-1.47,1.47ZM57,41.031v8.057a2.558,2.558,0,0,0,5.115,0V41.031a2.558,2.558,0,0,0-5.115,0Zm-8.057-2.013v8.055a2.558,2.558,0,0,0,5.115,0V39.018a2.558,2.558,0,1,0-5.115,0Zm-8.019-2.366a5.676,5.676,0,0,1,.034.609,1.586,1.586,0,0,1-.069.275v8.892l5.474,2.553A5.459,5.459,0,0,1,46,47.073V37a2.55,2.55,0,0,0-5.077-.352Zm-8.014.235-.277,5.939a5.512,5.512,0,0,1,1.488.448l3.826,1.783V37c0-.14.03-.27.04-.406a2.559,2.559,0,0,0-2.4-2.147l-.119,0A2.56,2.56,0,0,0,32.91,36.886Zm13.221,38.27A1.343,1.343,0,1,1,47.473,76.5,1.343,1.343,0,0,1,46.131,75.156ZM70.5,37.4a1.471,1.471,0,0,1,.539-2.009l3.7-2.134a1.471,1.471,0,1,1,1.47,2.549l-3.7,2.133a1.457,1.457,0,0,1-.734.2A1.473,1.473,0,0,1,70.5,37.4Zm-48.071.539-3.7-2.133a1.471,1.471,0,0,1,1.47-2.549l3.7,2.134a1.472,1.472,0,0,1-.736,2.746A1.453,1.453,0,0,1,22.433,37.94Zm37.106-9.369a1.471,1.471,0,0,1-.54-2.01l2.134-3.7a1.472,1.472,0,1,1,2.549,1.471l-2.134,3.7a1.469,1.469,0,0,1-2.009.54Zm-26.14-.54-2.134-3.7a1.472,1.472,0,1,1,2.549-1.471l2.133,3.7a1.471,1.471,0,1,1-2.547,1.47ZM46,24.59V19.469a1.471,1.471,0,0,1,2.942,0V24.59a1.471,1.471,0,1,1-2.942,0Z" transform="translate(34.642 87.783)" stroke="rgba(0,0,0,0)" stroke-width="1" fill="url(#linear-gradient)"/>
  </g>
</svg>
