<?xml version="1.0" encoding="utf-8"?>
<!-- Generator: Adobe Illustrator 25.4.1, SVG Export Plug-In . SVG Version: 6.00 Build 0)  -->
<svg version="1.1" id="Layer_1" xmlns="http://www.w3.org/2000/svg" xmlns:xlink="http://www.w3.org/1999/xlink" x="0px" y="0px"
	 viewBox="0 0 22 19" style="enable-background:new 0 0 22 19;" xml:space="preserve">
<style type="text/css">
	.st0{fill:#FFFFFF;}
</style>
<g id="Group_20396" transform="translate(3033 956)">
	<g id="Group_20395">
		<path id="Path_44097" class="st0" d="M-3025.9-937.5c-2.4,0-4.8-0.7-6.9-2c-0.2-0.2-0.3-0.5-0.1-0.7c0.1-0.2,0.3-0.2,0.5-0.2
			c0.3,0,0.6,0,1,0c1.4,0,2.8-0.4,4-1c-0.5-0.2-1.1-0.4-1.5-0.8c-0.8-0.6-1.4-1.4-1.6-2.3c-0.1-0.3,0.1-0.6,0.3-0.6c0,0,0,0,0,0
			c-0.3-0.2-0.5-0.5-0.8-0.8c-0.7-0.9-1.1-1.9-1.1-3.1v-0.1c0-0.3,0.2-0.5,0.5-0.5c0.1,0,0.2,0,0.3,0.1l0,0
			c-0.5-0.8-0.7-1.7-0.8-2.6c0-0.9,0.3-1.7,0.7-2.5c0.1-0.2,0.4-0.3,0.7-0.2c0.1,0,0.1,0.1,0.1,0.1c1,1.3,2.3,2.3,3.7,3
			c1.3,0.7,2.7,1.1,4.2,1.2c0-0.1,0-0.3,0-0.4c0-1.3,0.5-2.5,1.4-3.4c1.8-1.9,4.8-1.9,6.7-0.1c0.8-0.2,1.6-0.5,2.3-0.9
			c0.2-0.1,0.6-0.1,0.7,0.2c0.1,0.1,0.1,0.3,0,0.4c-0.2,0.5-0.4,0.9-0.7,1.3c0.2-0.1,0.4-0.1,0.5-0.2c0.3-0.1,0.6,0,0.7,0.3
			c0.1,0.2,0.1,0.4,0,0.5c-0.6,0.8-1.3,1.6-2.1,2.2c0,0.1,0,0.2,0,0.3c0,2.1-0.5,4.1-1.5,5.9
			C-3016.8-940.1-3021.1-937.4-3025.9-937.5L-3025.9-937.5z M-3030.5-939.4c1.5,0.6,3,0.9,4.6,0.9c4.4,0.1,8.4-2.4,10.4-6.3
			c0.9-1.7,1.4-3.6,1.4-5.5c0-0.2,0-0.3,0-0.5c0-0.2,0.1-0.4,0.2-0.5c0.3-0.2,0.6-0.5,0.9-0.8c-0.3,0.1-0.6,0.1-0.9,0.2
			c-0.2,0-0.5-0.1-0.5-0.3c-0.1-0.2,0-0.5,0.2-0.6c0.4-0.2,0.7-0.5,1-0.8c-0.5,0.2-1,0.3-1.5,0.4c-0.2,0-0.3,0-0.5-0.2
			c-1.4-1.5-3.8-1.6-5.4-0.2c0,0-0.1,0.1-0.1,0.1c-0.7,0.7-1.1,1.7-1.1,2.7c0,0.3,0,0.6,0.1,0.9c0,0.2,0,0.3-0.1,0.4
			c-0.1,0.1-0.3,0.2-0.4,0.2c-1.8-0.1-3.6-0.6-5.2-1.4c-1.3-0.7-2.5-1.6-3.5-2.7c-0.1,0.4-0.2,0.8-0.2,1.3c0,1.3,0.7,2.5,1.7,3.2
			c0.2,0.2,0.3,0.5,0.1,0.7c-0.1,0.1-0.3,0.2-0.5,0.2c-0.4,0-0.9-0.1-1.3-0.3c0.3,1.5,1.5,2.7,3,3c0.3,0.1,0.4,0.3,0.4,0.6
			c0,0.2-0.2,0.3-0.4,0.4c-0.4,0.1-0.8,0.1-1.3,0.1c0.7,1.2,1.9,1.9,3.2,1.9c0.3,0,0.5,0.2,0.5,0.5c0,0.1-0.1,0.3-0.2,0.4
			C-3027.1-940.2-3028.8-939.6-3030.5-939.4z"/>
	</g>
</g>
</svg>
