<svg xmlns="http://www.w3.org/2000/svg" xmlns:xlink="http://www.w3.org/1999/xlink" width="66" height="66" viewBox="0 0 66 66">
  <defs>
    <linearGradient id="linear-gradient" x1="0.53" y1="-0.135" x2="0.453" y2="0.982" gradientUnits="objectBoundingBox">
      <stop offset="0" stop-color="#78dba3"/>
      <stop offset="0.547" stop-color="#25a7de"/>
      <stop offset="1" stop-color="#f20587"/>
    </linearGradient>
  </defs>
  <g id="Group_25308" data-name="Group 25308" transform="translate(-8.232 -78.802)">
    <g id="Union_27" data-name="Union 27">
      <path id="Path_44036" data-name="Path 44036" d="M39.959,136.451a.868.868,0,0,1-.83-.619c-2.035-6.815,1.735-12.093,4.488-15.947.349-.488.686-.961,1-1.414a36.039,36.039,0,0,1-3.635,2.287c-3.186,1.826-5.489,3.145-5.531,6.788a.868.868,0,0,1-1.682.289c-2.316-6.339,2.435-10.06,7.03-13.659,3.719-2.914,7.567-5.927,8.333-10.446a.866.866,0,0,1,1.519-.411c7.184,8.582,1.349,15.512-3.8,21.626-3.1,3.678-6.022,7.152-6.022,10.639a.867.867,0,0,1-.741.858A.9.9,0,0,1,39.959,136.451Zm7.236-22.58a.867.867,0,0,1,.867.86c.017,1.89-1.4,3.87-3.034,6.162-1.991,2.788-4.345,6.083-4.7,10.048a40.053,40.053,0,0,1,5.193-7.112c4.839-5.747,9.426-11.2,4.851-18-1.451,4.183-5.176,7.1-8.509,9.711-3.115,2.441-5.935,4.649-6.733,7.5a15.612,15.612,0,0,1,4.985-3.787,19.214,19.214,0,0,0,6.382-5.034A.869.869,0,0,1,47.195,113.871ZM32.477,120.6a.868.868,0,0,1-.664-.31c-7.182-8.582-1.347-15.511,3.8-21.625,3.1-3.678,6.023-7.153,6.023-10.641a.868.868,0,0,1,1.7-.248c2.033,6.814-1.738,12.092-4.491,15.946-.35.488-.686.961-1,1.415a35.765,35.765,0,0,1,3.635-2.288c3.186-1.825,5.489-3.144,5.53-6.786a.867.867,0,0,1,1.681-.289c2.317,6.336-2.432,10.057-7.026,13.655-3.72,2.915-7.568,5.929-8.336,10.45a.868.868,0,0,1-.628.692A.878.878,0,0,1,32.477,120.6Zm9.657-27.929a40.183,40.183,0,0,1-5.193,7.111c-4.839,5.747-9.427,11.195-4.854,18,1.452-4.185,5.177-7.1,8.512-9.715,3.113-2.439,5.931-4.646,6.729-7.494a15.611,15.611,0,0,1-4.983,3.784,19.22,19.22,0,0,0-6.383,5.035.868.868,0,0,1-1.562-.511c-.017-1.893,1.4-3.872,3.035-6.164C39.426,99.923,41.78,96.63,42.134,92.668Z" fill="url(#linear-gradient)"/>
    </g>
    <rect id="Rectangle_8689" data-name="Rectangle 8689" width="66" height="66" transform="translate(8.232 78.802)" fill="none"/>
  </g>
</svg>
