<svg xmlns="http://www.w3.org/2000/svg" xmlns:xlink="http://www.w3.org/1999/xlink" width="66" height="66" viewBox="0 0 66 66">
  <defs>
    <linearGradient id="linear-gradient" x1="0.5" y1="-0.24" x2="0.5" y2="1" gradientUnits="objectBoundingBox">
      <stop offset="0" stop-color="#78dba3"/>
      <stop offset="0.547" stop-color="#25a7de"/>
      <stop offset="1" stop-color="#f20587"/>
    </linearGradient>
  </defs>
  <g id="Group_25313" data-name="Group 25313" transform="translate(-21.956 -82.766)">
    <g id="Group_20306" data-name="Group 20306">
      <path id="Union_213" data-name="Union 213" d="M-6344.708-2203.414a.868.868,0,0,1-.757-.441c-.066-.118-6.684-11.875-9.847-17.735a.865.865,0,0,1,.152-1.026.822.822,0,0,1,.265-.182,79.671,79.671,0,0,1-12.309-11.425.869.869,0,0,1,.006-1.17.868.868,0,0,1,1.167-.1,87.009,87.009,0,0,0,19.936,11.517,22.988,22.988,0,0,1-1.988-3.054.868.868,0,0,1,.152-1.032.871.871,0,0,1,1.034-.142,78.93,78.93,0,0,0,12.177,5.487.859.859,0,0,1,.522.51.87.87,0,0,1-.05.729l-9.7,17.618a.869.869,0,0,1-.757.449Zm-.008-2.655,8.454-15.358a81.113,81.113,0,0,1-8.521-3.693,21.061,21.061,0,0,0,2.646,2.874.869.869,0,0,1,.154,1.109.871.871,0,0,1-1.066.339,112.143,112.143,0,0,1-16.591-8.17c4.7,4.368,8.964,7.241,13.1,8.865a.867.867,0,0,1,.518,1.045.875.875,0,0,1-.991.617,26.482,26.482,0,0,1-5.487-1.621C-6349.9-2215.317-6346.278-2208.848-6344.716-2206.069Zm25.152-14.059c-15.628-.55-27.333-9.015-32.847-13.931a14.41,14.41,0,0,0,2.493,3.709.87.87,0,0,1,.04,1.138.869.869,0,0,1-1.119.2c-8.739-5.2-16.516-14.407-16.843-14.8a.869.869,0,0,1-.121-.924.868.868,0,0,1,.788-.5h13.431a.872.872,0,0,1,.737.407l8.2,13.15,6.824-13.091a.865.865,0,0,1,.771-.467h14.563a.872.872,0,0,1,.748.427.869.869,0,0,1,.011.861s-5.8,10.486-9.089,16.357a.863.863,0,0,1-.87.438q-.77-.1-1.528-.259a71.915,71.915,0,0,0,14.083,5.579.87.87,0,0,1,.612.972.87.87,0,0,1-.858.73Zm-24.279-9.627a51.225,51.225,0,0,0,15.792,6.749c-9.776-3.939-12.944-7.658-13.1-7.852a.868.868,0,0,1,.032-1.143.87.87,0,0,1,1.136-.121,18.915,18.915,0,0,0,7.788,3.164c2.592-4.638,6.49-11.668,8.081-14.54h-12.563Zm-9.851-7.924a53.962,53.962,0,0,0,6.7,5.771l-7.232-11.59h-11.023a83.387,83.387,0,0,0,11.421,10.507,16.217,16.217,0,0,1-1.341-3.908.868.868,0,0,1,.446-.941.852.852,0,0,1,.406-.1A.864.864,0,0,1-6353.695-2237.679Z" transform="translate(6398.311 2340.089)" stroke="rgba(0,0,0,0)" stroke-width="1" fill="url(#linear-gradient)"/>
    </g>
    <rect id="Rectangle_8691" data-name="Rectangle 8691" width="66" height="66" transform="translate(21.956 82.766)" fill="none"/>
  </g>
</svg>
