<svg xmlns="http://www.w3.org/2000/svg" xmlns:xlink="http://www.w3.org/1999/xlink" width="66" height="66" viewBox="0 0 66 66">
  <defs>
    <linearGradient id="linear-gradient" x1="0.5" y1="0.045" x2="0.5" y2="0.968" gradientUnits="objectBoundingBox">
      <stop offset="0" stop-color="#78dba3"/>
      <stop offset="0.547" stop-color="#25a7de"/>
      <stop offset="1" stop-color="#f20587"/>
    </linearGradient>
  </defs>
  <g id="Group_25312" data-name="Group 25312" transform="translate(20.898 -77.091)">
    <g id="Group_20308" data-name="Group 20308">
      <path id="Union_214" data-name="Union 214" d="M-6742.766-2122.158a7.143,7.143,0,0,1-7.134-7.134v-24.485a7.142,7.142,0,0,1,7.134-7.132h36.091a7.141,7.141,0,0,1,7.133,7.132v24.485a7.142,7.142,0,0,1-7.133,7.134Zm-5.241-31.619v24.485a5.248,5.248,0,0,0,5.241,5.243h36.091a5.248,5.248,0,0,0,5.243-5.243v-24.485a5.247,5.247,0,0,0-5.243-5.241h-36.091A5.247,5.247,0,0,0-6748.007-2153.777Zm19.247,23.428a.946.946,0,0,1-.945-.947.944.944,0,0,1,.945-.944h12.117a.944.944,0,0,1,.945.944.946.946,0,0,1-.945.947Zm-12.117,0a.946.946,0,0,1-.945-.947.944.944,0,0,1,.945-.944h8.077a.944.944,0,0,1,.947.944.946.946,0,0,1-.947.947Zm0-6.144a.945.945,0,0,1-.945-.945.945.945,0,0,1,.945-.945h32.313a.945.945,0,0,1,.945.945.945.945,0,0,1-.945.945Zm2.148-8.19a3.1,3.1,0,0,1-3.093-3.093v-3.9a3.1,3.1,0,0,1,3.093-3.092h7.821a3.1,3.1,0,0,1,3.093,3.092v3.9a3.1,3.1,0,0,1-3.093,3.093Zm-1.2-6.99v3.9a1.205,1.205,0,0,0,1.2,1.2h7.821a1.205,1.205,0,0,0,1.2-1.2v-3.9a1.2,1.2,0,0,0-1.2-1.2h-7.821A1.2,1.2,0,0,0-6739.932-2151.673Z" transform="translate(6736.821 2251.624)" stroke="rgba(0,0,0,0)" stroke-width="1" fill="url(#linear-gradient)"/>
    </g>
    <rect id="Rectangle_8692" data-name="Rectangle 8692" width="66" height="66" transform="translate(-20.898 77.091)" fill="none"/>
  </g>
</svg>
