<svg xmlns="http://www.w3.org/2000/svg" xmlns:xlink="http://www.w3.org/1999/xlink" width="66" height="66" viewBox="0 0 66 66">
  <defs>
    <linearGradient id="linear-gradient" x1="0.066" y1="-0.102" x2="0.078" y2="1" gradientUnits="objectBoundingBox">
      <stop offset="0" stop-color="#78dba3"/>
      <stop offset="0.547" stop-color="#25a7de"/>
      <stop offset="1" stop-color="#f20587"/>
    </linearGradient>
    <linearGradient id="linear-gradient-2" x1="0.068" y1="-0.339" x2="0.078" y2="1" xlink:href="#linear-gradient"/>
  </defs>
  <g id="Group_25311" data-name="Group 25311" transform="translate(2.327 -72.892)">
    <g id="Group_20310" data-name="Group 20310">
      <path id="Union_215" data-name="Union 215" d="M-7036.283-2133.862a9.586,9.586,0,0,1-3.184-1.83c-.156-.124-.305-.255-.454-.394l-.032-.032a9.464,9.464,0,0,1-1.58-1.923,10.558,10.558,0,0,1-.761-1.508c-.026-.059-.053-.117-.078-.176-.03-.078-.059-.158-.087-.239a12.918,12.918,0,0,1-.139-8.823c2.136-6.334,8.438-9.95,14.06-8.054a9.628,9.628,0,0,1,3.677,2.269c.335.005,1.052-.1,1.453-1.2a.75.75,0,0,1,.792-.491.75.75,0,0,1,.662.658,5.415,5.415,0,0,1-.687,3.239,3.627,3.627,0,0,0,2.079-.628.757.757,0,0,1,.912-.121.751.751,0,0,1,.351.848,5.579,5.579,0,0,1-2.488,3.258,1.546,1.546,0,0,0,1.635-.571.752.752,0,0,1,.846-.161.754.754,0,0,1,.445.736,3.875,3.875,0,0,1-2.674,3.436,13.478,13.478,0,0,1-.688,3.657,12.9,12.9,0,0,1-5.679,7.095,10.535,10.535,0,0,1-5.284,1.467A9.706,9.706,0,0,1-7036.283-2133.862Zm-2.058-17.811a9.992,9.992,0,0,0-3.279,6.093,10.93,10.93,0,0,0-.089,2.528,9.367,9.367,0,0,0,4.72,7.239,6.626,6.626,0,0,0,1.632.48,7.155,7.155,0,0,0,5.79-1.779,9.993,9.993,0,0,0,3.279-6.093c.773-4.995-2.036-9.592-6.263-10.247a6.567,6.567,0,0,0-1.02-.08A7.328,7.328,0,0,0-7038.341-2151.673Zm6.006-3.17c4.993.773,8.329,6.091,7.437,11.852a11.436,11.436,0,0,1-3.471,6.678,11.4,11.4,0,0,0,4.716-6.085,11.941,11.941,0,0,0,.625-3.791.752.752,0,0,1,.654-.745,2.245,2.245,0,0,0,1.21-.52,2.823,2.823,0,0,1-1.724-.422.751.751,0,0,1-.341-.495c-.058-.3-.129-.589-.211-.878a.751.751,0,0,1,.067-.573.745.745,0,0,1,.456-.358,2.6,2.6,0,0,0,1.211-.782,10.032,10.032,0,0,1-1.873.124.754.754,0,0,1-.651-.4c-.062-.119-.131-.23-.2-.342l-.082-.135a.75.75,0,0,1,.168-.97,2.09,2.09,0,0,0,.459-.537,2.786,2.786,0,0,1-1.231.145.7.7,0,0,1-.6-.215,8.2,8.2,0,0,0-3.3-2.118,8.141,8.141,0,0,0-2.6-.426,9.147,9.147,0,0,0-4.789,1.421,8.277,8.277,0,0,1,2.861-.519A7.886,7.886,0,0,1-7032.335-2154.843Zm-33.766,3.349a13.413,13.413,0,0,1,.417-3.695,3.879,3.879,0,0,1-1.548-4.072.755.755,0,0,1,.642-.573.751.751,0,0,1,.761.4c.437.848.969,1.032,1.4,1.027a5.6,5.6,0,0,1-1.422-3.845.754.754,0,0,1,.585-.708.752.752,0,0,1,.835.381,3.633,3.633,0,0,0,1.8,1.212,5.444,5.444,0,0,1,.3-3.3.749.749,0,0,1,.826-.435.755.755,0,0,1,.616.7c.059,1.167.7,1.488,1.034,1.577a9.621,9.621,0,0,1,4.179-1.089c5.974-.161,10.892,5.147,11.075,11.831a12.871,12.871,0,0,1-3.063,8.8,9.867,9.867,0,0,1-3.093,2.474c-.108.058-.222.108-.333.163-.08.037-.16.073-.239.106a9.6,9.6,0,0,1-3.693.862c-.085,0-.172,0-.259,0C-7061.1-2139.658-7065.923-2144.908-7066.1-2151.494Zm7.487-6.156a10,10,0,0,0-3.223,6.121c-.729,5,2.123,9.573,6.355,10.19a6.753,6.753,0,0,0,1.723.014,9.357,9.357,0,0,0,6.6-5.491,10.679,10.679,0,0,0,.676-2.478,9.976,9.976,0,0,0-1.345-6.786,7.157,7.157,0,0,0-5.011-3.4,6.659,6.659,0,0,0-.954-.069A7.332,7.332,0,0,0-7058.614-2157.65Zm-5.871,1.407a.755.755,0,0,1,.408.9,11.976,11.976,0,0,0-.516,3.806,11.452,11.452,0,0,0,2.746,7.235,11.432,11.432,0,0,1-1.381-7.434,11.394,11.394,0,0,1,3.691-6.979,8.529,8.529,0,0,1,6.9-2.166,8.124,8.124,0,0,1,3.755,1.594,8.648,8.648,0,0,0-6.757-3.113,8.169,8.169,0,0,0-3.778,1.055.755.755,0,0,1-.7.014,2.813,2.813,0,0,1-1.069-.49,2.118,2.118,0,0,0,.282.649.754.754,0,0,1-.126.979l-.1.087c-.1.092-.211.186-.312.286a.75.75,0,0,1-.736.192,10.038,10.038,0,0,1-1.76-.669,2.586,2.586,0,0,0,.933,1.1.767.767,0,0,1,.33.475.755.755,0,0,1-.1.569c-.163.25-.317.509-.459.775a.747.747,0,0,1-.47.374,2.817,2.817,0,0,1-1.772-.1A2.216,2.216,0,0,0-7064.485-2156.244Z" transform="translate(7073.766 2255.123)" stroke="rgba(0,0,0,0)" stroke-width="1" fill="url(#linear-gradient)"/>
      <path id="Path_44047" data-name="Path 44047" d="M41.118,105.517a3.353,3.353,0,0,0-2.1-1.5,3.4,3.4,0,0,0-4.058,2.561c-.012.052-.01.1-.019.156a6.9,6.9,0,0,0-1.6,2.982,5.851,5.851,0,0,0,5.691,7.207,5.789,5.789,0,0,0,3.109-.908,5.9,5.9,0,0,0-1.026-10.5Zm-4.775,1.376a1.983,1.983,0,0,1,1.922-1.545,1.894,1.894,0,0,1,.434.049,1.987,1.987,0,1,1-2.356,1.5Zm7.018,5.122a4.469,4.469,0,0,1-1.976,2.8,4.377,4.377,0,0,1-3.343.575,4.459,4.459,0,0,1-3.313-5.356,5.207,5.207,0,0,1,.482-1.241,3.354,3.354,0,0,0,2.28,1.863,3.407,3.407,0,0,0,4.144-3.257A4.448,4.448,0,0,1,43.361,112.015Z" fill="url(#linear-gradient-2)"/>
      <path id="Path_44048" data-name="Path 44048" d="M36.929,110.864a1.193,1.193,0,1,0,.884,1.427A1.187,1.187,0,0,0,36.929,110.864Z" fill="url(#linear-gradient-2)"/>
      <path id="Path_44049" data-name="Path 44049" d="M41.45,111.969a.843.843,0,1,0,.625,1.009A.838.838,0,0,0,41.45,111.969Z" fill="url(#linear-gradient-2)"/>
      <path id="Path_44051" data-name="Path 44051" d="M25.464,102.165a3.4,3.4,0,0,0-3.127-3.641,3.355,3.355,0,0,0-2.446.82,5.9,5.9,0,0,0-4.068,9.73,5.784,5.784,0,0,0,4,2.023c.143.011.286.015.428.015a5.782,5.782,0,0,0,3.824-1.441,5.885,5.885,0,0,0,2.007-4.034,6.893,6.893,0,0,0-.648-3.318C25.444,102.267,25.46,102.218,25.464,102.165ZM22.235,99.94a1.987,1.987,0,1,1-2.1,1.84A1.977,1.977,0,0,1,22.235,99.94Zm2.435,5.6a4.475,4.475,0,0,1-1.526,3.066,4.4,4.4,0,0,1-6.243-.451,4.489,4.489,0,0,1,1.941-7.162,3.391,3.391,0,0,0-.122.689h0a3.4,3.4,0,0,0,3.126,3.641c.082.006.163.009.245.009a3.356,3.356,0,0,0,2.482-1.119A5.233,5.233,0,0,1,24.67,105.535Z" fill="url(#linear-gradient-2)"/>
      <path id="Path_44052" data-name="Path 44052" d="M22.321,105.685a1.193,1.193,0,1,0,1.093,1.276A1.187,1.187,0,0,0,22.321,105.685Z" fill="url(#linear-gradient-2)"/>
      <path id="Path_44053" data-name="Path 44053" d="M17.675,105.413a.843.843,0,1,0,.772.9A.841.841,0,0,0,17.675,105.413Z" fill="url(#linear-gradient-2)"/>
    </g>
    <rect id="Rectangle_8693" data-name="Rectangle 8693" width="66" height="66" transform="translate(-2.327 72.892)" fill="none"/>
  </g>
</svg>
