<svg xmlns="http://www.w3.org/2000/svg" xmlns:xlink="http://www.w3.org/1999/xlink" width="66" height="66" viewBox="0 0 66 66">
  <defs>
    <linearGradient id="linear-gradient" x1="0.579" x2="0.579" y2="1" gradientUnits="objectBoundingBox">
      <stop offset="0" stop-color="#78dba3"/>
      <stop offset="0.547" stop-color="#25a7de"/>
      <stop offset="1" stop-color="#f20587"/>
    </linearGradient>
  </defs>
  <g id="Group_25310" data-name="Group 25310" transform="translate(-210.42 -73.202)">
    <g id="Group_20312" data-name="Group 20312">
      <path id="Union_217" data-name="Union 217" d="M-7181.7-2124.519a5.269,5.269,0,0,1,5.26-5.264,5.269,5.269,0,0,1,5.262,5.264,5.268,5.268,0,0,1-5.262,5.262A5.267,5.267,0,0,1-7181.7-2124.519Zm1.889,0a3.375,3.375,0,0,0,3.371,3.371,3.374,3.374,0,0,0,3.371-3.371,3.375,3.375,0,0,0-3.371-3.373A3.376,3.376,0,0,0-7179.814-2124.519Zm14.19-7.061a11.345,11.345,0,0,1,11.331-11.333,11.345,11.345,0,0,1,11.333,11.333,11.345,11.345,0,0,1-11.333,11.331A11.345,11.345,0,0,1-7165.624-2131.58Zm1.891,0a9.451,9.451,0,0,0,9.44,9.44,9.452,9.452,0,0,0,9.441-9.44,9.452,9.452,0,0,0-9.441-9.442A9.452,9.452,0,0,0-7163.733-2131.58Zm8.5,6.117v-8.55l-3.734,3.788-1.346-1.328,6.025-6.11,6.026,6.11-1.346,1.328-3.734-3.788v8.55Zm-20.7-6.805a2.924,2.924,0,0,1-2.9-2.458l-4.029-24.528-.847-2.627a1.472,1.472,0,0,0-1.407-1.027h-5.461v-1.889h5.461a3.363,3.363,0,0,1,3.208,2.337l.655,2.039h28.228a4.958,4.958,0,0,1,4.059,2.073,4.956,4.956,0,0,1,.7,4.5l-2.777,8.449a14.127,14.127,0,0,0-1.886-.32l2.868-8.72a3.1,3.1,0,0,0-.437-2.806,3.087,3.087,0,0,0-2.528-1.29h-27.805l2.568,15.617h15.438a14.277,14.277,0,0,0-2.054,1.891h-13.074l.985,5.991a1.038,1.038,0,0,0,1.029.873h7.693a14.111,14.111,0,0,0-.211,1.889Z" transform="translate(7410.189 2248.23)" stroke="rgba(0,0,0,0)" stroke-width="1" fill="url(#linear-gradient)"/>
    </g>
    <rect id="Rectangle_8694" data-name="Rectangle 8694" width="66" height="66" transform="translate(210.42 73.202)" fill="none"/>
  </g>
</svg>
