<svg xmlns="http://www.w3.org/2000/svg" width="27.012" height="23.58" viewBox="0 0 27.012 23.58">
  <path id="Path_49277" data-name="Path 49277" d="M25.491,34.246a1.571,1.571,0,0,0-1.552-.333L1.078,41.448A1.569,1.569,0,0,0,.94,44.377L6.594,46.85,8.3,54.762a.84.84,0,0,0,.591.711,1,1,0,0,0,.877-.3l4.2-3.142,4.9,4.014a1.561,1.561,0,0,0,.991.356,1.579,1.579,0,0,0,.507-.084,1.56,1.56,0,0,0,1.024-1.127l4.569-19.424A1.571,1.571,0,0,0,25.491,34.246ZM10.133,48.268a.2.2,0,0,0-.008.023l-.946,3.3L8.124,46.7l7.258-4.032-5.074,5.306A.763.763,0,0,0,10.133,48.268Zm.3,4.5.43-1.5.411-1.436,1.472,1.2ZM24.472,35.412,19.9,54.836a.042.042,0,0,1-.068.023l-5.367-4.392h0l-2.487-2.035,7.989-8.353a.764.764,0,0,0-.923-1.2L7.218,45.456,1.552,42.978c-.017-.008-.027-.012-.025-.041s.011-.032.029-.038l22.861-7.536a.042.042,0,0,1,.055.05Z" transform="translate(0.501 -33.317)" fill="#fff" stroke="rgba(0,0,0,0)" stroke-width="1"/>
</svg>
