<svg xmlns="http://www.w3.org/2000/svg" width="29.929" height="24.575" viewBox="0 0 29.929 24.575">
  <g id="Group_20396" data-name="Group 20396" transform="translate(-9.036 -94.364)">
    <g id="Group_20395" data-name="Group 20395">
      <path id="Path_44097" data-name="Path 44097" d="M18.716,118.939a17.264,17.264,0,0,1-9.367-2.732.688.688,0,0,1,.431-1.262c.429.036.873.053,1.338.053a11.305,11.305,0,0,0,5.463-1.414,6.164,6.164,0,0,1-2.036-1.034,6.44,6.44,0,0,1-2.242-3.177.689.689,0,0,1,.453-.869,6.47,6.47,0,0,1-1.054-1.027,6.641,6.641,0,0,1-1.495-4.154v-.13a.688.688,0,0,1,1.028-.6l.026.015A7.15,7.15,0,0,1,10.208,99.1a6.937,6.937,0,0,1,.929-3.338.687.687,0,0,1,1.127-.087,15.965,15.965,0,0,0,5.081,4.118,15.614,15.614,0,0,0,5.653,1.7c-.013-.2-.02-.39-.02-.584a6.616,6.616,0,0,1,1.866-4.6,6.554,6.554,0,0,1,9.141-.16A11.247,11.247,0,0,0,37.152,94.9a.687.687,0,0,1,.993.823,7.092,7.092,0,0,1-.885,1.73c.248-.091.493-.19.736-.3a.687.687,0,0,1,.847,1.017,13.615,13.615,0,0,1-2.8,2.987c.012.144.018.283.018.415a17.534,17.534,0,0,1-2.028,8.067,16.876,16.876,0,0,1-15.321,9.3Zm-6.28-2.642a16.389,16.389,0,0,0,6.274,1.267,15.5,15.5,0,0,0,14.1-8.544,16.157,16.157,0,0,0,1.88-7.444,4.706,4.706,0,0,0-.049-.631.686.686,0,0,1,.271-.646,12.271,12.271,0,0,0,1.28-1.094q-.582.132-1.173.209a.679.679,0,0,1-.734-.448.688.688,0,0,1,.277-.814,5.651,5.651,0,0,0,1.308-1.135,12.809,12.809,0,0,1-1.979.549.687.687,0,0,1-.632-.2,5.175,5.175,0,0,0-7.434-.1,5.2,5.2,0,0,0-1.472,3.657,7.421,7.421,0,0,0,.1,1.21.687.687,0,0,1-.167.573.677.677,0,0,1-.553.226,17.161,17.161,0,0,1-7.026-1.919,17.357,17.357,0,0,1-4.8-3.652,5.669,5.669,0,0,0-.322,1.729,5.341,5.341,0,0,0,2.329,4.323.687.687,0,0,1-.449,1.247,7.214,7.214,0,0,1-1.777-.359,5.131,5.131,0,0,0,4.039,4.076.688.688,0,0,1,.01,1.342,7.635,7.635,0,0,1-1.71.185,5.081,5.081,0,0,0,4.418,2.585.688.688,0,0,1,.406,1.228A12.292,12.292,0,0,1,12.436,116.3Z" fill="#fff"/>
    </g>
  </g>
</svg>
