<svg xmlns="http://www.w3.org/2000/svg" xmlns:xlink="http://www.w3.org/1999/xlink" width="112.507" height="57" viewBox="0 0 112.507 57">
  <defs>
    <linearGradient id="linear-gradient" x1="-0.309" y1="-0.817" x2="0.705" y2="0.751" gradientUnits="objectBoundingBox">
      <stop offset="0" stop-color="#f40201"/>
      <stop offset="0.5" stop-color="#f7941d"/>
      <stop offset="1" stop-color="#fd0"/>
    </linearGradient>
    <linearGradient id="linear-gradient-2" x1="0.043" y1="-0.064" x2="1.631" y2="1.294" xlink:href="#linear-gradient"/>
  </defs>
  <g id="vulcan_verse" data-name="vulcan verse" transform="translate(0.45 0.5)">
    <path id="Union_167" data-name="Union 167" d="M40.5,54.013V52.946l.491-.429-1.964-7.4-.3-.262-.678-.594V43.01H27.258l-.527-.941c-.065-.115-6.525-11.633-9.734-17.492l-1.523-2.644C4.261,13.235,0,4.4,0,4.4S16.99,16.989,24.5,19.823a21.6,21.6,0,0,0-2.914-2.192C12.83,12.462,5.108,3.257,4.784,2.868L2.394,0H20.346l.513.824L28.125,12.47,34.178.936,34.669,0H53.09L51.627,2.605c-.056.1-5.512,9.815-8.619,15.585l68.549-.022V20.83l-1.3,1.3V38.816l1.3,1.277V43.01H95.223v1.235l-.678.594-.077.068v7.367l.063.053.692.595v3.065L40.5,56Z" fill="#140533"/>
    <g id="Group_24798" data-name="Group 24798" transform="translate(-620 -1203)" style="mix-blend-mode: normal;isolation: isolate">
      <g id="Group_24797" data-name="Group 24797" transform="translate(620 1203)">
        <path id="Path_48051" data-name="Path 48051" d="M125.838,47.507V44.847l-68.549.022c3.108-5.77,8.564-15.486,8.62-15.586l1.463-2.605H48.95l-.491.936L42.406,39.149,35.141,27.5l-.513-.823H16.675l2.39,2.868c.324.389,8.047,9.595,16.8,14.763A21.565,21.565,0,0,1,38.783,46.5c-7.512-2.835-24.5-15.423-24.5-15.423s4.26,8.835,15.474,17.532l1.523,2.644c3.209,5.859,9.669,17.377,9.734,17.493l.528.941H52.332v1.247l.678.594.3.262,1.964,7.4-.491.43v3.054l54.722-.013V79.6l-.693-.595-.063-.054V71.584l.077-.067.678-.594V69.688h16.333V66.771l-1.3-1.277V48.809Z" transform="translate(-14.281 -26.678)" stroke="rgba(0,0,0,0)" stroke-width="1"/>
        <path id="Path_48052" data-name="Path 48052" d="M128.647,102.822l-.025-16.9-1.3-1.3v-.3h6.234v.3l-1.327,1.3V104l-1.652,1.6h-8.238l-1.652-1.6V85.921l-1.327-1.3v-.3h6.234v.3l-1.327,1.3v16.9l1.2,1.152h1.978Zm6.534-18.227v-.3h6.235v.3l-1.327,1.3v18.052h4.381V99.742l3.58-1.026v5.258l1.327,1.277v.326h-14.2v-.326l1.327-1.277V85.9Zm21.582,19.354,1.2-1.151V97.214l3.58-1.027v7.787l-1.628,1.6H151.68L150,103.948V85.9l1.678-1.6h8.237l1.628,1.6v2.2l-3.58,1.026V87.073l-1.2-1.176H154.81l-1.2,1.176V102.8l1.2,1.151ZM175.04,85.9v18.077l1.327,1.277v.326h-6.234v-.326l1.327-1.277V94.91l-4.381,1.252v7.812l1.327,1.277v.326h-6.234v-.326l1.327-1.277V85.9l1.628-1.6h8.262Zm-7.962,1.176v6.21l4.381-1.252V87.073l-1.2-1.176H168.28Zm15.848-1.2,5.232,6.76V85.9l-1.327-1.3v-.3h6.234v.3l-1.3,1.3v18.077l1.3,1.277v.326h-6.234v-.326l1.327-1.277V96.137l-5.258-6.81v14.647l1.327,1.277v.326h-6.234v-.326l1.327-1.277V85.9l-1.327-1.3v-.3h6.234v.3Zm-59.71,21.942v-.153h3.547v.153l-.755.661,1.424,5.341,1.425-5.341-.755-.661v-.153h3.561v.153l-.755.661-2.45,9.181.755.649v.165h-3.547V118.3l.741-.649-2.436-9.181Zm15.012,4.413,2.493-.636v1.462l-2.493.636v3.942h2.493v-3.421l2.037-.534v3.967l.755.648v.166h-8.076v-.166l.755-.648v-9.181l-.755-.661v-.153h8.076v.153l-.755.661v1.106l-2.037.521v-1.628h-2.493Zm11.85,5.43.755.649v.165h-3.547V118.3l.755-.649v-9.181l-.755-.661v-.153h6.381l.94.814V112.1l-2.279.585,2.279.585v4.387l.755.649v.165h-3.547V118.3l.755-.649v-3.446l-2.493-.636Zm0-8.583v3.039l2.493-.61v-2.429l-.684-.6h-1.125Zm9.428,9.4-.94-.814v-2.149l2.037-.521v2.06l.683.6h1.126l.684-.6V113.7l-4.53-1.208v-4.018l.94-.814h4.7l.926.814v1.119l-2.037.522v-1.043l-.684-.6H161.3l-.684.6v2.556l4.515,1.208v4.819l-.94.814Zm11.623-6.244,2.493-.636v1.462l-2.493.636v3.942h2.493v-3.421l2.037-.534v3.967l.755.648v.166h-8.077v-.166l.755-.648v-9.181l-.755-.661v-.153h8.077v.153l-.755.661v1.106l-2.037.521v-1.628H171.13Z" transform="translate(-83.179 -64.456)" stroke="rgba(0,0,0,0)" stroke-width="1" fill="url(#linear-gradient)"/>
        <path id="Path_48053" data-name="Path 48053" d="M32.077,31.757H45.326l8.88,14.236,7.47-14.236H76.052s-5.779,10.289-8.879,16.068a19.03,19.03,0,0,1-8.6-3.383s4.651,5.5,20.578,10.289C62.38,54.167,49.977,44.3,44.762,38.945a15.235,15.235,0,0,0,3.665,7.188C39.829,41.059,32.077,31.757,32.077,31.757ZM63.79,53.885,54.205,71.221S47.722,59.664,44.48,53.744a28.742,28.742,0,0,0,7.611,2.678C45.749,53.885,39.406,48.529,32.641,41.2c7.47,5.638,13.672,9.02,23.538,12.967a20.011,20.011,0,0,1-4.51-5.779A72.481,72.481,0,0,0,63.79,53.885Z" transform="translate(-25.95 -30.008)" stroke="rgba(0,0,0,0)" stroke-width="1" fill="url(#linear-gradient-2)"/>
      </g>
    </g>
  </g>
</svg>
